<svg xmlns="http://www.w3.org/2000/svg" xmlns:xlink="http://www.w3.org/1999/xlink" width="270.547" height="261.199" viewBox="0 0 270.547 261.199"><defs><style>.a{fill:#9f9bbe;}.a,.n{opacity:0.5;}.b{fill:#2a246d;}.c{fill:#574dc3;}.d{fill:#8266ee;}.e{fill:#fff;}.f,.t{fill:#1c1657;}.g{fill:#c8bfe9;}.h{fill:#d4ecff;}.i{fill:#e83a36;}.j{fill:#ffc2b0;}.k{fill:#ea9c92;}.l{fill:#5793ce;}.m{fill:#274f89;}.n,.v{fill:#173d7a;}.o{fill:#d12925;}.p{fill:#ff8868;}.q{fill:url(#a);}.r{fill:url(#b);}.s{fill:#06033e;}.s,.t{opacity:0.3;}.u{fill:#ff2c9c;}</style><linearGradient id="a" x1="5.018" y1="7.169" x2="5.018" y2="6.465" gradientUnits="objectBoundingBox"><stop offset="0" stop-color="#2d0979"/><stop offset="1" stop-color="#5b04f7"/></linearGradient><linearGradient id="b" x1="6.467" y1="7.617" x2="5.341" y2="7.529" gradientUnits="objectBoundingBox"><stop offset="0" stop-color="#3919bb"/><stop offset="1" stop-color="#6507fa"/></linearGradient></defs><g transform="translate(0)"><g transform="translate(0 0)"><path class="a" d="M391.622,334.64l100.831-58.215c2.852-1.647,2.494-4.523-.8-6.425L423,230.374c-3.294-1.9-8.276-2.108-11.128-.462L311.036,288.127c-2.852,1.647-2.494,4.523.8,6.425l68.659,39.627C383.787,336.08,388.77,336.286,391.622,334.64Z" transform="translate(-273.212 -101.148)"/><path class="b" d="M436.3,107.074l108.357-62.56a4.375,4.375,0,0,1,3.672-.451l-.007-.011.2.075.048.018,3.916,1.5-3.514,1.721c.015.064.036.125.05.191l19.145,87.069c.883,4.02-.885,8.715-3.951,10.484L458.458,206.165l.377,4.481-4.28-1.659a6.012,6.012,0,0,1-3.064-4.359l-19.146-87.07C431.462,113.538,433.23,108.844,436.3,107.074Z" transform="translate(-432.118 -43.844)"/><path class="c" d="M444.588,107.074l108.357-62.56a4.375,4.375,0,0,1,3.672-.451l-.007-.011.2.075.048.018,3.916,1.5-3.514,1.721c.015.064.036.125.05.191l13.128,59.679L517.417,148.54l-76.252-37.148A8.409,8.409,0,0,1,444.588,107.074Z" transform="translate(-440.41 -43.844)"/><path class="d" d="M614.039,148.068l-8.248-3.512a10.335,10.335,0,0,1,3.342-8.26l13.056,5.492Z" transform="translate(-605.775 -72.488)"/><path class="d" d="M448.864,210.9l108.357-62.56c3.065-1.77,4.834-6.464,3.951-10.484L542.025,50.785c-.883-4.021-4.084-5.846-7.149-4.076l-108.357,62.56c-3.066,1.77-4.835,6.464-3.951,10.484l19.146,87.07C442.6,210.844,445.8,212.668,448.864,210.9Z" transform="translate(-418.381 -44.522)"/><path class="e" d="M460.273,108.721,568.63,46.161a4.281,4.281,0,0,1,4.267-.185,4.451,4.451,0,0,0-3.226.566L461.314,109.1c-3.066,1.77-4.835,6.464-3.951,10.484l19.146,87.069a6.105,6.105,0,0,0,2.883,4.26c-1.829-.4-3.356-2.058-3.924-4.641l-19.145-87.069C455.439,115.185,457.208,110.491,460.273,108.721Z" transform="translate(-453.175 -44.355)"/><path class="e" d="M453.193,207.568,555.1,148.76c2.8-1.62,4.423-5.915,3.615-9.594L541.069,58.919c-.808-3.679-3.737-5.35-6.543-3.73L432.619,114c-2.8,1.619-4.424,5.915-3.615,9.594l17.647,80.247C447.459,207.517,450.388,209.187,453.193,207.568Z" transform="translate(-420.362 -47.167)"/><path class="f" d="M453.193,207.568,555.1,148.76c2.8-1.62,4.423-5.915,3.615-9.594L541.069,58.919c-.808-3.679-3.737-5.35-6.543-3.73L432.619,114c-2.8,1.619-4.424,5.915-3.615,9.594l17.647,80.247C447.459,207.517,450.388,209.187,453.193,207.568Z" transform="translate(-420.362 -47.167)"/><path class="c" d="M431.881,207.259,533.79,148.451c2.8-1.619,4.423-5.915,3.615-9.593L519.758,58.61a5.641,5.641,0,0,0-2.568-3.87c1.616.415,2.951,1.93,3.456,4.231l17.647,80.247c.808,3.679-.81,7.975-3.615,9.594L432.77,207.62a3.917,3.917,0,0,1-3.974.141A4.065,4.065,0,0,0,431.881,207.259Z" transform="translate(-399.938 -47.22)"/><path class="b" d="M299.1,262.661l14.812-1.955,95.612-55.2c3.065-1.77,8.419-1.548,11.959.5l67.751,39.1,8.956-1.183V249h-.009a3.488,3.488,0,0,1-2.056,3.139L387.768,314.7c-3.065,1.77-8.419,1.548-11.959-.5L302.026,271.62c-1.991-1.15-2.984-2.631-2.926-4.022h0Z" transform="translate(-270.114 -93.56)"/><path class="d" d="M299.1,236.556l6.793-3.922h74.683l36.818,21.243,8.956-1.183v5.082h-.009a3.487,3.487,0,0,1-2.056,3.139l-108.357,62.56a11.215,11.215,0,0,1-6.172,1.157Z" transform="translate(-198.272 -102.336)"/><path class="c" d="M299.1,262.224l3.975-.525v5.082h-.009a3.487,3.487,0,0,1-2.056,3.139l-1.91,1.1Z" transform="translate(-74.996 -111.341)"/><path class="c" d="M470.832,359.619a13.881,13.881,0,0,1-10.161-.631V347.653h10.161Z" transform="translate(-354.269 -137.972)"/><path class="g" d="M387.762,305.843l108.357-62.56c3.065-1.77,2.681-4.861-.859-6.9l-73.784-42.584c-3.539-2.044-8.894-2.266-11.959-.5l-108.357,62.56c-3.065,1.77-2.681,4.861.859,6.9L375.8,305.347C379.342,307.39,384.7,307.613,387.762,305.843Z" transform="translate(-270.108 -89.779)"/><path class="e" d="M302.022,282.112,375.805,324.7c3.54,2.044,8.894,2.266,11.959.5l108.357-62.56a4.035,4.035,0,0,0,1.906-2.085c.48,1.45-.132,2.917-1.906,3.941l-108.357,62.56c-3.065,1.77-8.419,1.547-11.959-.5l-73.783-42.585c-2.379-1.373-3.325-3.219-2.764-4.82A5.759,5.759,0,0,0,302.022,282.112Z" transform="translate(-270.11 -110.985)"/><g transform="translate(40.044 106.177)"><path class="d" d="M369.074,232.983l4.9-2.83c.394-.227.344-.624-.11-.887l-5.786-3.341a1.709,1.709,0,0,0-1.536-.064l-4.9,2.83c-.393.228-.344.625.11.887l5.786,3.341A1.707,1.707,0,0,0,369.074,232.983Z" transform="translate(-229.193 -206.367)"/><path class="d" d="M380.044,239.317l4.9-2.83c.393-.228.344-.625-.11-.887l-5.786-3.341a1.709,1.709,0,0,0-1.536-.064l-4.9,2.83c-.394.227-.344.625.11.887l5.786,3.341A1.708,1.708,0,0,0,380.044,239.317Z" transform="translate(-247.735 -208.33)"/><path class="d" d="M391.014,245.651l4.9-2.831c.393-.227.344-.624-.11-.886l-5.787-3.341a1.706,1.706,0,0,0-1.536-.064l-4.9,2.831c-.394.227-.344.624.11.886l5.787,3.341A1.706,1.706,0,0,0,391.014,245.651Z" transform="translate(-266.276 -210.292)"/><path class="d" d="M405.258,240.661l4.9-2.83c.393-.228.344-.625-.11-.887l-4.858-2.8a1.708,1.708,0,0,0-1.536-.063l-4.9,2.83c-.394.228-.344.625.11.887l4.858,2.8A1.708,1.708,0,0,0,405.258,240.661Z" transform="translate(-290.991 -208.912)"/><path class="d" d="M416.228,246.995l4.9-2.831c.393-.227.344-.624-.11-.886l-4.858-2.8a1.706,1.706,0,0,0-1.536-.064l-4.9,2.83c-.393.227-.344.624.11.887l4.858,2.8A1.706,1.706,0,0,0,416.228,246.995Z" transform="translate(-309.532 -210.875)"/><path class="d" d="M427.2,253.328l4.9-2.83c.394-.227.344-.625-.11-.887l-4.858-2.8a1.706,1.706,0,0,0-1.536-.064l-4.9,2.831c-.393.227-.344.624.11.886l4.858,2.8A1.706,1.706,0,0,0,427.2,253.328Z" transform="translate(-328.073 -212.837)"/><path class="d" d="M438.168,259.662l4.9-2.83c.394-.228.344-.625-.11-.887l-4.858-2.8a1.708,1.708,0,0,0-1.536-.063l-4.9,2.83c-.393.227-.344.625.11.887l4.858,2.8A1.708,1.708,0,0,0,438.168,259.662Z" transform="translate(-346.615 -214.799)"/><path class="d" d="M449.138,265.995l4.9-2.83c.394-.227.344-.624-.11-.887l-4.857-2.8a1.705,1.705,0,0,0-1.536-.064l-4.9,2.83c-.393.227-.344.624.11.887l4.857,2.8A1.707,1.707,0,0,0,449.138,265.995Z" transform="translate(-365.156 -216.762)"/><path class="d" d="M460.108,272.329l4.9-2.83c.393-.228.344-.625-.11-.887l-4.857-2.8a1.708,1.708,0,0,0-1.536-.063l-4.9,2.83c-.393.228-.344.625.11.887l4.857,2.8A1.708,1.708,0,0,0,460.108,272.329Z" transform="translate(-383.698 -218.724)"/><path class="d" d="M471.078,278.663l4.9-2.831c.393-.227.344-.624-.11-.886l-4.857-2.8a1.706,1.706,0,0,0-1.536-.064l-4.9,2.83c-.393.227-.344.624.11.887l4.857,2.8A1.706,1.706,0,0,0,471.078,278.663Z" transform="translate(-402.239 -220.686)"/><path class="d" d="M482.048,285l4.9-2.83c.393-.227.344-.625-.11-.887l-4.857-2.8a1.707,1.707,0,0,0-1.536-.064l-4.9,2.831c-.394.227-.344.624.11.886l4.857,2.8A1.706,1.706,0,0,0,482.048,285Z" transform="translate(-420.78 -222.649)"/><path class="d" d="M493.019,291.33l4.9-2.83c.393-.228.344-.625-.111-.887l-4.858-2.8a1.708,1.708,0,0,0-1.536-.063l-4.9,2.83c-.394.227-.344.625.11.887l4.858,2.8A1.708,1.708,0,0,0,493.019,291.33Z" transform="translate(-439.322 -224.611)"/><path class="d" d="M503.989,297.663l4.9-2.83c.393-.227.344-.624-.111-.887l-4.858-2.8a1.705,1.705,0,0,0-1.536-.064l-4.9,2.83c-.394.227-.344.624.11.887l4.858,2.8A1.706,1.706,0,0,0,503.989,297.663Z" transform="translate(-457.863 -226.573)"/><path class="d" d="M421.422,237.662l4.9-2.83c.393-.227.344-.624-.111-.887l-4.857-2.8a1.707,1.707,0,0,0-1.536-.064l-4.9,2.83c-.394.227-.344.624.11.887l4.857,2.8A1.705,1.705,0,0,0,421.422,237.662Z" transform="translate(-318.31 -207.983)"/><path class="d" d="M410.288,231.234l4.9-2.83c.393-.227.344-.624-.11-.887l-4.858-2.8a1.706,1.706,0,0,0-1.536-.064l-4.9,2.831c-.394.227-.344.624.11.886l4.858,2.8A1.706,1.706,0,0,0,410.288,231.234Z" transform="translate(-299.492 -205.992)"/><path class="d" d="M390.94,223.33l10.56-6.1c.393-.228.344-.625-.11-.887l-4.858-2.8a1.708,1.708,0,0,0-1.536-.064l-10.559,6.1c-.394.227-.344.625.11.887l4.858,2.8A1.706,1.706,0,0,0,390.94,223.33Z" transform="translate(-272.448 -202.531)"/><path class="d" d="M401.619,216.015l8.569-4.948c.393-.227.344-.624-.11-.886l-4.857-2.8a1.707,1.707,0,0,0-1.536-.063l-8.568,4.947c-.394.227-.344.624.11.887l4.858,2.8A1.706,1.706,0,0,0,401.619,216.015Z" transform="translate(-288.506 -200.621)"/><path class="d" d="M432.392,244l4.9-2.83c.393-.228.344-.625-.11-.887l-4.857-2.8a1.709,1.709,0,0,0-1.536-.064l-4.9,2.83c-.394.228-.344.625.11.887l4.858,2.8A1.708,1.708,0,0,0,432.392,244Z" transform="translate(-336.852 -209.946)"/><path class="d" d="M443.362,250.33l4.9-2.831c.393-.227.344-.624-.11-.886l-4.858-2.8a1.706,1.706,0,0,0-1.536-.064l-4.9,2.83c-.394.227-.344.625.11.887l4.858,2.8A1.706,1.706,0,0,0,443.362,250.33Z" transform="translate(-355.393 -211.908)"/><path class="d" d="M454.332,256.663l4.9-2.83c.393-.227.344-.624-.11-.887l-4.858-2.8a1.706,1.706,0,0,0-1.536-.064l-4.9,2.831c-.393.227-.344.624.11.886l4.858,2.8A1.706,1.706,0,0,0,454.332,256.663Z" transform="translate(-373.935 -213.87)"/><path class="d" d="M465.3,263l4.9-2.83c.394-.228.344-.625-.11-.887l-4.858-2.8a1.708,1.708,0,0,0-1.536-.063l-4.9,2.83c-.393.228-.344.625.11.887l4.858,2.8A1.707,1.707,0,0,0,465.3,263Z" transform="translate(-392.476 -215.833)"/><path class="d" d="M476.272,269.33l4.9-2.83c.394-.227.344-.624-.11-.887l-4.858-2.8a1.706,1.706,0,0,0-1.536-.064l-4.9,2.83c-.393.227-.344.624.11.887l4.857,2.8A1.707,1.707,0,0,0,476.272,269.33Z" transform="translate(-411.017 -217.795)"/><path class="d" d="M487.242,275.664l4.9-2.83c.394-.227.344-.625-.11-.887l-4.857-2.8a1.708,1.708,0,0,0-1.536-.064l-4.9,2.83c-.393.228-.344.625.11.887l4.857,2.8A1.709,1.709,0,0,0,487.242,275.664Z" transform="translate(-429.559 -219.757)"/><path class="d" d="M498.212,282l4.9-2.831c.393-.227.344-.624-.11-.886l-4.857-2.8a1.706,1.706,0,0,0-1.536-.064l-4.9,2.83c-.393.227-.344.625.11.887l4.857,2.8A1.706,1.706,0,0,0,498.212,282Z" transform="translate(-448.1 -221.72)"/><path class="d" d="M509.182,288.331l4.9-2.83c.393-.227.344-.624-.11-.887l-4.857-2.8a1.707,1.707,0,0,0-1.536-.064l-4.9,2.831c-.393.227-.344.624.11.886l4.857,2.8A1.706,1.706,0,0,0,509.182,288.331Z" transform="translate(-466.641 -223.682)"/><path class="d" d="M520.152,294.665l4.9-2.83c.394-.228.344-.625-.11-.887l-4.858-2.8a1.709,1.709,0,0,0-1.536-.063l-4.9,2.83c-.394.228-.344.625.11.887l4.857,2.8A1.708,1.708,0,0,0,520.152,294.665Z" transform="translate(-485.183 -225.644)"/><path class="d" d="M531.259,304.423l10.7-6.176c.394-.227.344-.625-.11-.887l-4.858-2.8a1.706,1.706,0,0,0-1.536-.064l-10.7,6.176c-.393.227-.344.624.11.887l4.858,2.8A1.706,1.706,0,0,0,531.259,304.423Z" transform="translate(-509.75 -227.631)"/><path class="d" d="M555.034,292.524l9.029-5.213c.394-.227.344-.625-.11-.887l-4.858-2.8a1.708,1.708,0,0,0-1.536-.063l-9.029,5.213c-.393.228-.344.625.11.887l4.857,2.8A1.708,1.708,0,0,0,555.034,292.524Z" transform="translate(-548.265 -224.243)"/><path class="d" d="M451.6,242.757l4.9-2.83c.393-.228.344-.625-.11-.887l-4.858-2.8a1.708,1.708,0,0,0-1.536-.063L445.1,239c-.394.227-.344.625.11.887l4.858,2.8A1.708,1.708,0,0,0,451.6,242.757Z" transform="translate(-369.322 -209.562)"/><path class="d" d="M440.36,236.266l4.9-2.831c.393-.227.344-.624-.11-.886l-4.858-2.8a1.706,1.706,0,0,0-1.536-.063l-4.9,2.83c-.394.227-.344.625.11.887l4.858,2.8A1.706,1.706,0,0,0,440.36,236.266Z" transform="translate(-350.319 -207.551)"/><path class="d" d="M429.117,229.775l4.9-2.831c.393-.227.344-.624-.11-.886l-4.858-2.8a1.706,1.706,0,0,0-1.536-.064l-4.9,2.83c-.394.227-.344.624.11.887l4.858,2.8A1.706,1.706,0,0,0,429.117,229.775Z" transform="translate(-331.316 -205.539)"/><path class="d" d="M417.874,223.283l4.9-2.83c.393-.227.344-.624-.11-.887l-4.857-2.8a1.707,1.707,0,0,0-1.536-.064l-4.9,2.831c-.394.227-.344.624.11.886l4.858,2.8A1.706,1.706,0,0,0,417.874,223.283Z" transform="translate(-312.314 -203.528)"/><path class="d" d="M462.573,249.09l4.9-2.83c.393-.227.344-.624-.11-.887l-4.858-2.8a1.705,1.705,0,0,0-1.536-.064l-4.9,2.83c-.394.227-.344.624.11.887l4.858,2.8A1.706,1.706,0,0,0,462.573,249.09Z" transform="translate(-387.863 -211.524)"/><path class="d" d="M473.543,255.424l4.9-2.83c.393-.228.344-.625-.11-.887l-4.858-2.8a1.708,1.708,0,0,0-1.536-.063l-4.9,2.83c-.393.228-.344.625.11.887l4.858,2.8A1.708,1.708,0,0,0,473.543,255.424Z" transform="translate(-406.404 -213.486)"/><path class="d" d="M484.513,261.758l4.9-2.831c.394-.227.344-.624-.11-.886l-4.858-2.8a1.706,1.706,0,0,0-1.536-.064l-4.9,2.83c-.393.227-.344.624.11.887l4.858,2.8A1.706,1.706,0,0,0,484.513,261.758Z" transform="translate(-424.946 -215.449)"/><path class="d" d="M495.483,268.091l4.9-2.83c.394-.227.344-.625-.11-.887l-4.858-2.8a1.706,1.706,0,0,0-1.536-.064l-4.9,2.831c-.393.227-.344.624.11.886l4.857,2.8A1.707,1.707,0,0,0,495.483,268.091Z" transform="translate(-443.487 -217.411)"/><path class="d" d="M506.454,274.425l4.9-2.83c.394-.228.344-.625-.11-.887l-4.857-2.8a1.708,1.708,0,0,0-1.536-.064l-4.9,2.83c-.393.227-.344.625.11.887l4.857,2.8A1.709,1.709,0,0,0,506.454,274.425Z" transform="translate(-462.029 -219.373)"/><path class="d" d="M517.423,280.758l4.9-2.83c.393-.227.344-.624-.11-.887l-4.857-2.8a1.705,1.705,0,0,0-1.536-.064l-4.9,2.83c-.393.227-.344.624.11.887l4.857,2.8A1.706,1.706,0,0,0,517.423,280.758Z" transform="translate(-480.57 -221.336)"/><path class="d" d="M528.394,287.092l4.9-2.83c.393-.228.344-.625-.11-.887l-4.857-2.8a1.709,1.709,0,0,0-1.536-.063l-4.9,2.83c-.394.228-.344.625.11.887l4.857,2.8A1.708,1.708,0,0,0,528.394,287.092Z" transform="translate(-499.112 -223.298)"/><path class="d" d="M539.364,293.426l4.9-2.831c.393-.227.344-.624-.11-.886l-4.857-2.8a1.707,1.707,0,0,0-1.536-.063l-4.9,2.83c-.394.227-.344.624.11.887l4.858,2.8A1.706,1.706,0,0,0,539.364,293.426Z" transform="translate(-517.653 -225.26)"/><path class="d" d="M550.334,299.759l4.9-2.83c.393-.227.344-.625-.11-.887l-4.858-2.8a1.706,1.706,0,0,0-1.536-.064L543.83,296c-.394.227-.344.624.11.886l4.858,2.8A1.706,1.706,0,0,0,550.334,299.759Z" transform="translate(-536.194 -227.223)"/><path class="d" d="M445.826,227.091l4.9-2.83c.394-.228.344-.625-.11-.887l-4.857-2.8a1.708,1.708,0,0,0-1.536-.064l-4.9,2.83c-.393.228-.344.625.11.887l4.857,2.8A1.709,1.709,0,0,0,445.826,227.091Z" transform="translate(-359.558 -204.708)"/><path class="d" d="M434.911,220.789l4.9-2.83c.393-.228.344-.625-.11-.887l-4.858-2.8a1.708,1.708,0,0,0-1.536-.064l-4.9,2.83c-.394.228-.344.625.11.887l4.858,2.8A1.708,1.708,0,0,0,434.911,220.789Z" transform="translate(-341.109 -202.756)"/><path class="d" d="M424,214.487l4.9-2.83c.394-.228.344-.625-.11-.887l-4.858-2.8a1.708,1.708,0,0,0-1.536-.064l-4.9,2.83c-.393.228-.344.625.11.887l4.857,2.8A1.709,1.709,0,0,0,424,214.487Z" transform="translate(-322.66 -200.803)"/><path class="d" d="M413.079,208.185l4.9-2.83c.393-.228.344-.625-.11-.887l-4.857-2.8a1.709,1.709,0,0,0-1.536-.064l-4.9,2.83c-.394.227-.344.625.11.887l4.857,2.8A1.708,1.708,0,0,0,413.079,208.185Z" transform="translate(-304.211 -198.85)"/><path class="d" d="M421.052,202.547l4.9-2.83c.394-.227.344-.624-.11-.887l-1.606-.927a1.706,1.706,0,0,0-1.536-.063l-4.9,2.83c-.393.227-.344.624.11.887l1.606.927A1.706,1.706,0,0,0,421.052,202.547Z" transform="translate(-319.93 -197.685)"/><path class="d" d="M435.3,210.772l4.9-2.831c.393-.227.344-.624-.11-.886l-1.606-.928a1.708,1.708,0,0,0-1.536-.063l-4.9,2.83c-.393.228-.344.625.11.887l1.606.927A1.706,1.706,0,0,0,435.3,210.772Z" transform="translate(-344.007 -200.234)"/><path class="d" d="M446.167,217.047l4.9-2.83c.393-.227.344-.624-.11-.887l-1.606-.927a1.708,1.708,0,0,0-1.536-.063l-4.9,2.83c-.393.227-.344.625.11.887l1.606.927A1.706,1.706,0,0,0,446.167,217.047Z" transform="translate(-362.379 -202.178)"/><path class="d" d="M457.037,223.323l4.9-2.83c.394-.227.344-.625-.11-.887l-1.606-.927a1.706,1.706,0,0,0-1.536-.063l-4.9,2.83c-.393.227-.344.624.11.887l1.606.927A1.706,1.706,0,0,0,457.037,223.323Z" transform="translate(-380.751 -204.122)"/><path class="d" d="M467.907,229.6l4.9-2.83c.394-.228.344-.625-.11-.887l-1.606-.927a1.706,1.706,0,0,0-1.536-.064l-4.9,2.831c-.393.227-.344.624.111.886l1.606.928A1.708,1.708,0,0,0,467.907,229.6Z" transform="translate(-399.123 -206.067)"/><path class="d" d="M528.593,264.636l4.9-2.83c.393-.228.344-.625-.11-.887l-1.606-.927a1.706,1.706,0,0,0-1.536-.064l-4.9,2.831c-.393.227-.344.624.11.886l1.606.928A1.708,1.708,0,0,0,528.593,264.636Z" transform="translate(-501.693 -216.922)"/><path class="d" d="M539.463,270.912l4.9-2.83c.394-.228.344-.625-.11-.887l-1.606-.927a1.706,1.706,0,0,0-1.536-.064l-4.9,2.831c-.393.227-.344.624.11.886l1.606.928A1.708,1.708,0,0,0,539.463,270.912Z" transform="translate(-520.065 -218.867)"/><path class="d" d="M550.333,277.188l4.9-2.831c.394-.227.344-.624-.11-.886l-1.606-.928a1.708,1.708,0,0,0-1.536-.064l-4.9,2.83c-.393.228-.344.625.11.887l1.606.927A1.706,1.706,0,0,0,550.333,277.188Z" transform="translate(-538.438 -220.811)"/><path class="d" d="M561.2,283.464l4.9-2.831c.394-.227.344-.624-.11-.886l-1.606-.928a1.708,1.708,0,0,0-1.536-.064l-4.9,2.83c-.393.228-.344.625.11.887l1.606.927A1.706,1.706,0,0,0,561.2,283.464Z" transform="translate(-556.81 -222.755)"/><path class="d" d="M456.8,233.425l4.9-2.831c.393-.227.344-.624-.11-.886l-4.857-2.8a1.706,1.706,0,0,0-1.536-.064l-4.9,2.83c-.393.227-.344.625.11.887l4.857,2.8A1.706,1.706,0,0,0,456.8,233.425Z" transform="translate(-378.1 -206.67)"/><path class="d" d="M467.766,239.758l4.9-2.83c.393-.227.344-.624-.11-.887l-4.857-2.8a1.707,1.707,0,0,0-1.536-.064l-4.9,2.831c-.393.227-.344.624.11.886l4.857,2.8A1.706,1.706,0,0,0,467.766,239.758Z" transform="translate(-396.641 -208.633)"/><path class="d" d="M478.737,246.092l4.9-2.83c.393-.228.344-.625-.11-.887l-4.857-2.8a1.71,1.71,0,0,0-1.536-.064l-4.9,2.83c-.394.228-.344.625.11.887l4.857,2.8A1.708,1.708,0,0,0,478.737,246.092Z" transform="translate(-415.183 -210.595)"/><path class="d" d="M489.707,252.425l4.9-2.83c.393-.227.344-.624-.11-.887l-4.858-2.8a1.706,1.706,0,0,0-1.536-.064l-4.9,2.83c-.394.227-.344.624.11.887l4.858,2.8A1.706,1.706,0,0,0,489.707,252.425Z" transform="translate(-433.724 -212.557)"/><path class="d" d="M500.677,258.759l4.9-2.83c.393-.227.344-.625-.11-.887l-4.858-2.8a1.708,1.708,0,0,0-1.536-.064l-4.9,2.83c-.394.228-.344.625.11.887l4.858,2.8A1.708,1.708,0,0,0,500.677,258.759Z" transform="translate(-452.265 -214.52)"/><path class="d" d="M511.647,265.093l4.9-2.831c.394-.227.344-.624-.11-.886l-4.858-2.8a1.705,1.705,0,0,0-1.536-.064l-4.9,2.83c-.393.227-.344.625.11.887l4.858,2.8A1.706,1.706,0,0,0,511.647,265.093Z" transform="translate(-470.807 -216.482)"/><path class="d" d="M522.617,271.426l4.9-2.83c.394-.227.344-.624-.11-.887l-4.858-2.8a1.705,1.705,0,0,0-1.536-.064l-4.9,2.831c-.393.227-.344.624.11.886l4.858,2.8A1.706,1.706,0,0,0,522.617,271.426Z" transform="translate(-489.348 -218.444)"/><path class="d" d="M533.587,277.76l4.9-2.83c.394-.228.344-.625-.11-.887l-4.857-2.8a1.708,1.708,0,0,0-1.536-.063l-4.9,2.83c-.393.228-.344.625.11.887l4.858,2.8A1.709,1.709,0,0,0,533.587,277.76Z" transform="translate(-507.89 -220.407)"/><path class="d" d="M544.558,284.093l4.9-2.83c.393-.227.344-.624-.11-.887l-4.857-2.8a1.706,1.706,0,0,0-1.536-.064l-4.9,2.83c-.393.227-.344.624.11.887l4.857,2.8A1.707,1.707,0,0,0,544.558,284.093Z" transform="translate(-526.431 -222.369)"/><path class="d" d="M380.261,231.735,394.7,223.4c.394-.227.344-.625-.11-.887l-4.858-2.8a1.706,1.706,0,0,0-1.536-.064l-14.439,8.337c-.393.227-.344.624.11.887l4.857,2.8A1.706,1.706,0,0,0,380.261,231.735Z" transform="translate(-258.278 -204.441)"/><path class="d" d="M515.032,309.544l14.439-8.336c.393-.228.344-.625-.111-.887l-4.858-2.8a1.708,1.708,0,0,0-1.536-.064l-14.439,8.337c-.393.227-.344.624.11.887l4.858,2.8A1.706,1.706,0,0,0,515.032,309.544Z" transform="translate(-486.064 -228.549)"/><path class="d" d="M485.907,300.437l4.9-2.831c.394-.227.344-.624-.11-.886l-5.787-3.341a1.706,1.706,0,0,0-1.536-.064l-4.9,2.83c-.393.227-.344.624.11.887l5.787,3.34A1.706,1.706,0,0,0,485.907,300.437Z" transform="translate(-426.661 -227.266)"/><path class="d" d="M401.985,253.681l7.841-4.527c.393-.227.344-.625-.11-.887l-5.787-3.341a1.708,1.708,0,0,0-1.536-.064l-7.841,4.527c-.393.227-.344.625.11.887l5.787,3.341A1.708,1.708,0,0,0,401.985,253.681Z" transform="translate(-287.756 -212.255)"/><path class="d" d="M471.08,293.572l7.84-4.527c.394-.227.344-.624-.11-.887l-5.787-3.341a1.707,1.707,0,0,0-1.536-.063l-7.841,4.527c-.393.228-.344.625.11.887l5.787,3.341A1.705,1.705,0,0,0,471.08,293.572Z" transform="translate(-404.539 -224.614)"/><path class="d" d="M417.812,262.819l7.84-4.527c.394-.227.344-.625-.11-.887l-5.787-3.341A1.708,1.708,0,0,0,418.22,254l-7.841,4.527c-.393.227-.344.625.11.887l5.786,3.341A1.71,1.71,0,0,0,417.812,262.819Z" transform="translate(-314.507 -215.086)"/><path class="d" d="M444.983,254.114l-34.09,19.681a.467.467,0,0,0,0,.885l5.9,3.407a1.692,1.692,0,0,0,1.531,0l34.09-19.682Z" transform="translate(-341.323 -215.168)"/><path class="d" d="M516.335,315.13l-5.461,3.153c-.322.186-.282.511.09.727l2.367,1.367a1.4,1.4,0,0,0,1.259.052l5.461-3.153c.323-.186.282-.511-.09-.727l-2.367-1.367A1.4,1.4,0,0,0,516.335,315.13Z" transform="translate(-478.249 -234.034)"/><path class="d" d="M505.274,308.743l-5.461,3.153c-.323.186-.282.511.09.727l2.367,1.367a1.4,1.4,0,0,0,1.259.052l5.461-3.153c.323-.186.282-.511-.09-.727l-2.367-1.367A1.4,1.4,0,0,0,505.274,308.743Z" transform="translate(-459.554 -232.055)"/><path class="d" d="M494.3,302.41l-5.461,3.153c-.323.186-.282.511.09.727l2.367,1.367a1.4,1.4,0,0,0,1.259.052l5.461-3.153c.323-.186.282-.511-.09-.727l-2.367-1.367A1.4,1.4,0,0,0,494.3,302.41Z" transform="translate(-441.013 -230.093)"/><path class="d" d="M511.332,305.246l-5.461,3.153c-.323.186-.282.511.09.727l2.367,1.366a1.4,1.4,0,0,0,1.258.052l5.461-3.153c.323-.186.282-.512-.09-.727l-2.367-1.367A1.4,1.4,0,0,0,511.332,305.246Z" transform="translate(-469.793 -230.972)"/></g><g transform="translate(37.173 38.718)"><path class="h" d="M496.121,169.957,536.9,146.411l-.525-2.651L495.6,167.306Z" transform="translate(-481.618 -113.519)"/><path class="h" d="M492.8,179.631l28.468-16.436-.525-2.651-28.468,16.436Z" transform="translate(-463.691 -118.719)"/><path class="e" d="M494.46,169.022,519.089,154.8l-.525-2.651-24.628,14.219Z" transform="translate(-462.658 -116.119)"/><path class="i" d="M535.709,185.727l12.314-7.11-.525-2.651-12.314,7.11Z" transform="translate(-520.06 -123.497)"/><path class="h" d="M471.986,109.7l12.314-7.11-.525-2.651-12.314,7.11Z" transform="translate(-412.357 -99.943)"/><path class="e" d="M470.05,118.631l12.314-7.11-.525-2.651-12.314,7.11Z" transform="translate(-409.085 -102.709)"/><path class="h" d="M557.622,242.459l12.314-7.11-.525-2.651-12.314,7.11Z" transform="translate(-557.098 -141.074)"/><path class="h" d="M466.178,136.486l12.314-7.11-.525-2.651-12.314,7.11Z" transform="translate(-402.541 -108.241)"/></g><g transform="translate(58.131 66.227)"><path class="i" d="M517.618,142.447a1.536,1.536,0,0,0,2.213.682,1.926,1.926,0,0,0,.793-2.418,1.537,1.537,0,0,0-2.214-.682A1.927,1.927,0,0,0,517.618,142.447Z" transform="translate(-501.546 -139.802)"/><path class="e" d="M525.3,146.884a1.537,1.537,0,0,0,2.214.682,1.927,1.927,0,0,0,.793-2.418,1.537,1.537,0,0,0-2.214-.682A1.928,1.928,0,0,0,525.3,146.884Z" transform="translate(-514.535 -141.176)"/><path class="h" d="M532.988,151.321A1.537,1.537,0,0,0,535.2,152a1.927,1.927,0,0,0,.793-2.418,1.537,1.537,0,0,0-2.214-.682A1.928,1.928,0,0,0,532.988,151.321Z" transform="translate(-527.524 -142.551)"/><path class="i" d="M540.673,155.758a1.537,1.537,0,0,0,2.214.682,1.927,1.927,0,0,0,.793-2.418,1.536,1.536,0,0,0-2.214-.682A1.927,1.927,0,0,0,540.673,155.758Z" transform="translate(-540.513 -143.926)"/></g></g><g transform="translate(146.258 48.689)"><g transform="translate(0)"><path class="i" d="M368.732,129.968l26.56-15.329a1.611,1.611,0,0,1,1.509-.11l-.005-.017L399.961,116s-1.189.415-1.886.661L401.907,136a4.037,4.037,0,0,1-1.572,4.082L374.948,154.73,375.4,157l-3.2-1.5.014-.006a2.31,2.31,0,0,1-1.142-1.7L367.16,134.05A4.036,4.036,0,0,1,368.732,129.968Z" transform="translate(-367.086 -114.39)"/><path class="i" d="M369.1,157.594l26.56-15.329a4.036,4.036,0,0,0,1.572-4.082l-3.913-19.743c-.312-1.573-1.521-2.3-2.7-1.615l-26.56,15.329a4.038,4.038,0,0,0-1.573,4.082l3.914,19.742C366.715,157.553,367.925,158.275,369.1,157.594Z" transform="translate(-359.192 -115.065)"/><path class="e" d="M372.1,131.812l26.56-15.329a1.589,1.589,0,0,1,1.743.014,1.683,1.683,0,0,0-1.139.222l-26.56,15.329a4.039,4.039,0,0,0-1.573,4.082l3.914,19.742a2.434,2.434,0,0,0,.958,1.6,2.1,2.1,0,0,1-1.562-1.838l-3.914-19.742A4.039,4.039,0,0,1,372.1,131.812Z" transform="translate(-367.836 -114.96)"/></g><g transform="translate(14.266 17.049)"><path class="e" d="M375.963,142.44a1.4,1.4,0,0,0,2.2,1.034,3.115,3.115,0,0,0,1.382-3.1,1.4,1.4,0,0,0-2.2-1.034A3.115,3.115,0,0,0,375.963,142.44Z" transform="translate(-365.058 -139.092)"/><path class="e" d="M383.829,146.979a1.4,1.4,0,0,0,2.2,1.035,3.115,3.115,0,0,0,1.382-3.1,1.4,1.4,0,0,0-2.2-1.034A3.114,3.114,0,0,0,383.829,146.979Z" transform="translate(-378.353 -140.499)"/><path class="e" d="M391.695,151.519a1.4,1.4,0,0,0,2.2,1.035,3.115,3.115,0,0,0,1.382-3.1,1.4,1.4,0,0,0-2.2-1.034A3.114,3.114,0,0,0,391.695,151.519Z" transform="translate(-391.648 -141.906)"/></g></g><g transform="translate(158.181 23.866)"><g transform="translate(0)"><path class="c" d="M351.456,94l26.56-15.329a1.61,1.61,0,0,1,1.508-.11l-.006-.017,3.166,1.488-1.886.661,3.833,19.336a4.037,4.037,0,0,1-1.572,4.082l-25.386,14.652.449,2.269-3.2-1.5.015,0a2.31,2.31,0,0,1-1.142-1.7l-3.914-19.743A4.037,4.037,0,0,1,351.456,94Z" transform="translate(-349.81 -78.423)"/><path class="g" d="M351.828,121.627l26.56-15.329a4.036,4.036,0,0,0,1.572-4.082l-3.914-19.743c-.311-1.573-1.521-2.3-2.7-1.615l-26.56,15.329a4.036,4.036,0,0,0-1.572,4.082l3.913,19.743C349.438,121.585,350.647,122.308,351.828,121.627Z" transform="translate(-341.915 -79.098)"/><path class="e" d="M354.826,95.845l26.56-15.329a1.589,1.589,0,0,1,1.743.015,1.683,1.683,0,0,0-1.139.222L355.43,96.083a4.036,4.036,0,0,0-1.572,4.082l3.913,19.743a2.438,2.438,0,0,0,.959,1.6,2.1,2.1,0,0,1-1.563-1.838l-3.913-19.742A4.037,4.037,0,0,1,354.826,95.845Z" transform="translate(-350.56 -78.993)"/></g><g transform="translate(14.266 17.049)"><path class="e" d="M358.686,106.472a1.4,1.4,0,0,0,2.2,1.035,3.116,3.116,0,0,0,1.382-3.1,1.4,1.4,0,0,0-2.2-1.035A3.114,3.114,0,0,0,358.686,106.472Z" transform="translate(-347.781 -103.125)"/><path class="e" d="M366.552,111.012a1.4,1.4,0,0,0,2.2,1.035,3.116,3.116,0,0,0,1.382-3.1,1.4,1.4,0,0,0-2.2-1.035A3.114,3.114,0,0,0,366.552,111.012Z" transform="translate(-361.076 -104.532)"/><path class="e" d="M374.418,115.552a1.4,1.4,0,0,0,2.2,1.035,3.116,3.116,0,0,0,1.382-3.1,1.4,1.4,0,0,0-2.2-1.035A3.114,3.114,0,0,0,374.418,115.552Z" transform="translate(-374.371 -105.938)"/></g></g><g transform="translate(164.677 88.197)"><g transform="translate(0)"><path class="i" d="M338.379,327.621s2.587-1.305,4.177.638,3.861,6.531,3.931,9.631-2.453,2.89-3.953,2.157-5.882-7.089-6.147-8.335a4.322,4.322,0,0,1,.734-3.259C337.543,328.123,338.379,327.621,338.379,327.621Z" transform="translate(-308.779 -219.83)"/><path class="h" d="M341.911,326.632l-.12,2.681a1.519,1.519,0,0,0,.758,1.395,2.983,2.983,0,0,0,2,.31c1.95-.313,2.124-.87,2.263-3.55S341.911,326.632,341.911,326.632Z" transform="translate(-312.875 -219.464)"/><g transform="translate(15.362 47.689)"><path class="i" d="M324.653,320.151s2.587-1.305,4.177.638,3.862,6.53,3.932,9.631-2.454,2.89-3.953,2.157-5.882-7.09-6.147-8.335a4.326,4.326,0,0,1,.734-3.259C323.817,320.653,324.653,320.151,324.653,320.151Z" transform="translate(-300.942 -265.205)"/><path class="h" d="M328.186,319.163l-.12,2.681a1.519,1.519,0,0,0,.758,1.394,2.98,2.98,0,0,0,2,.311c1.95-.313,2.124-.87,2.263-3.551S328.186,319.163,328.186,319.163Z" transform="translate(-305.039 -264.84)"/><path class="b" d="M322.208,245.831c.766-12.462,13.5,1.834,13.5,1.834l8.713,8.54,7.846,8.619a7.735,7.735,0,0,1,1.949,6.213L351.039,295.2a2.375,2.375,0,0,1-2.382,2.064,8.144,8.144,0,0,1-1.175-.1,2.953,2.953,0,0,1-2.623-3.133l.58-22.6L328.962,261.5S321.443,258.294,322.208,245.831Z" transform="translate(-322.154 -240.731)"/></g><path class="b" d="M335.933,252.711c.766-12.462,13.5,1.834,13.5,1.834l8.713,8.54,7.846,8.619a7.735,7.735,0,0,1,1.949,6.213l-3.174,24.168a2.375,2.375,0,0,1-2.382,2.064,8.148,8.148,0,0,1-1.176-.1,2.952,2.952,0,0,1-2.622-3.133l.563-21.954-16.461-10.583S335.168,265.174,335.933,252.711Z" transform="translate(-329.99 -195.173)"/><path class="d" d="M353.913,196.415c-9.652,4-9.458,9.707-9.458,9.707s1.89,20.916,1.245,34.885c-.27,5.839,31.025,6.285,26.358-9.294-5.5-18.369-3.441-33.239-6.017-35.483S356.409,195.38,353.913,196.415Z" transform="translate(-340.437 -178.882)"/><path class="j" d="M361.924,202.122c.505,1.959,3.073,2.992,5.735,2.306s4.412-2.83,3.907-4.79-3.073-2.992-5.735-2.307S361.419,200.162,361.924,202.122Z" transform="translate(-351.554 -179.53)"/><path class="e" d="M365.8,204.9a7.117,7.117,0,0,0,1.763-.227,6.423,6.423,0,0,0,3.383-2.073,3.489,3.489,0,0,0-1.478-5.737,6.769,6.769,0,0,0-7.348,1.892,3.489,3.489,0,0,0,1.478,5.737A5.909,5.909,0,0,0,365.8,204.9Zm1.468-7.522a4.977,4.977,0,0,1,1.856.341,2.574,2.574,0,0,1,1.107,4.3,5.852,5.852,0,0,1-6.287,1.62,2.8,2.8,0,0,1-1.783-1.833h0a2.794,2.794,0,0,1,.676-2.465,5.5,5.5,0,0,1,2.9-1.762A6.169,6.169,0,0,1,367.272,197.373Z" transform="translate(-351.347 -179.323)"/><path class="j" d="M370.542,195.543a23.929,23.929,0,0,0,.084,3.446c.052.961-3.314,1.859-4.185.989s-.522-1.775-.731-5.048S370.542,195.543,370.542,195.543Z" transform="translate(-353.197 -178.445)"/><path class="k" d="M365.7,195.519s.829,3.035,4.916,4.2l-.062-2.758Z" transform="translate(-353.19 -179.034)"/><path class="j" d="M355.629,181.849a7.429,7.429,0,1,0,9.052-5.333A7.429,7.429,0,0,0,355.629,181.849Z" transform="translate(-345.705 -173.072)"/><path class="k" d="M355.315,186.634s4.09,1.752,6.922,1.772,2.208-2.352,2.208-2.352l-8.407-1.215Z" transform="translate(-339.904 -175.725)"/><path class="b" d="M366.108,183a13.265,13.265,0,0,0-6.689-.882,3.279,3.279,0,0,0-1.889,1.122,1.114,1.114,0,0,1-.572.414c-.554.125-1.462-2.175-2.539-2.227s-1.8.71-.912,2.124.585,3,.178,3.224-5.438-3.284-1.635-10.818,14.183-3.267,15.686-1.739c0,0,1.583,1.379,2.87.151C370.6,174.374,372.048,185.183,366.108,183Z" transform="translate(-342.93 -171.633)"/><path class="j" d="M366.7,231.8v5.652a2.3,2.3,0,0,0,.752,1.7l11.61,10.585-1.319,2.017-16-10.488a3.119,3.119,0,0,1-1.27-2.2l-1.094-10.488Z" transform="translate(-357.267 -189.277)"/><path class="d" d="M380.9,207.007s-3.522,5.3-4.834,19.241c0,0,6.017,1.946,9.431.841S380.9,207.007,380.9,207.007Z" transform="translate(-376.065 -182.593)"/><path class="c" d="M374.248,216.712a98.321,98.321,0,0,1,1.458,10.848,2.215,2.215,0,0,1-1.458,2.138h0Z" transform="translate(-364.174 -185.6)"/><g transform="translate(13.086 56.24)"><path class="c" d="M322.02,265.344l2.566-.339,16.565-9.564a2.3,2.3,0,0,1,2.071.086L354.96,262.3l1.552-.2v1.545h0a.6.6,0,0,1-.356.544l-18.773,10.838a2.3,2.3,0,0,1-2.072-.086l-12.783-7.378a.835.835,0,0,1-.507-.7h0Z" transform="translate(-322.02 -253.775)"/><path class="c" d="M322.02,260.821l1.177-.679h12.939l6.379,3.68,1.552-.2v1.545h0a.6.6,0,0,1-.356.544l-18.773,10.839a1.947,1.947,0,0,1-1.069.2Z" transform="translate(-309.573 -255.295)"/><path class="l" d="M322.02,265.268l.689-.091v1.545h0a.6.6,0,0,1-.356.544l-.331.191Z" transform="translate(-288.216 -256.855)"/><path class="d" d="M351.773,282.806a2.4,2.4,0,0,1-1.76-.11v-2.627h1.76Z" transform="translate(-336.6 -261.469)"/><path class="e" d="M337.381,272.825l18.773-10.838c.531-.306.465-.842-.148-1.2l-12.783-7.378a2.3,2.3,0,0,0-2.071-.086l-18.773,10.838c-.531.306-.464.842.149,1.2l12.783,7.377A2.3,2.3,0,0,0,337.381,272.825Z" transform="translate(-322.019 -253.12)"/><path class="g" d="M335.224,272.96l15.61-9.012c.442-.255.386-.7-.124-.995l-6.85-3.852a1.915,1.915,0,0,0-1.723-.072l-15.61,9.012c-.442.255-.387.7.124.995l6.85,3.852A1.915,1.915,0,0,0,335.224,272.96Z" transform="translate(-319.545 -254.897)"/></g><path class="j" d="M345.786,252.737l.194,1.295a9.574,9.574,0,0,1-.084,3.322l-.231,1.141a1.605,1.605,0,0,1-1.286,1.261h0a.884.884,0,0,1-1.038-.772l-.31-2.769s-.709.928-1.05.928.382-2.773,1.156-4.343S345.786,252.737,345.786,252.737Z" transform="translate(-312.222 -196.56)"/><path class="j" d="M340.56,221.446l2.014,3.986a7.822,7.822,0,0,1,.825,3.026l.874,13.636,2.65-.063,1.2-15.314a5.623,5.623,0,0,0-.069-1.416l-1.373-7.766Z" transform="translate(-313.359 -185.856)"/><g transform="translate(27.845 48.12)"><path class="b" d="M321.045,270.221l1.574-2.055,16.553-9.584a2.3,2.3,0,0,0,.959-1.839l-.014-13.552.952-1.242-.894-.518h0a.6.6,0,0,0-.649.037l-18.76,10.861a2.3,2.3,0,0,0-.959,1.839l.016,14.759a.835.835,0,0,0,.351.787h0Z" transform="translate(-319.805 -241.354)"/><path class="c" d="M332.239,262.45l1.176-.681,6.456-11.213-.007-7.364.952-1.242-.894-.518h0a.6.6,0,0,0-.649.037l-18.76,10.861a1.942,1.942,0,0,0-.707.827Z" transform="translate(-319.553 -241.354)"/><path class="l" d="M321.257,242.5l.422-.551-.894-.518h0a.6.6,0,0,0-.649.037l-.331.192Z" transform="translate(-300.417 -241.354)"/><path class="m" d="M347.461,257.432a2.4,2.4,0,0,0-.784,1.581l1.834,1.058.878-1.525Z" transform="translate(-346.672 -246.336)"/><path class="d" d="M320.289,253.08l18.76-10.861c.531-.307.961.018.963.726l.016,14.759a2.3,2.3,0,0,1-.959,1.839L320.309,270.4c-.531.307-.961-.018-.963-.726l-.016-14.759A2.3,2.3,0,0,1,320.289,253.08Z" transform="translate(-318.437 -241.586)"/></g><path class="j" d="M352.331,261.251l.3.622a4.179,4.179,0,0,0,1.568,1.739l1.863,1.148a1.855,1.855,0,0,0,1.9.044l.064-.039a1.121,1.121,0,0,0,.159-1.722l-1.948-2s1.094.839,1.4.5c.224-.248-1.062-1.455-2.048-1.494a3.9,3.9,0,0,1-1.942-.815Z" transform="translate(-331.857 -198.774)"/><path class="d" d="M341.168,196.728s7.138,7.767,10.018,14.893a14.572,14.572,0,0,1-8.416,6.123C336.794,219.469,341.168,196.728,341.168,196.728Z" transform="translate(-315.756 -179.408)"/><path class="c" d="M348.754,221.493,347.6,210.316l2.726,10.472A15.568,15.568,0,0,1,348.754,221.493Z" transform="translate(-320.396 -183.618)"/><path class="e" d="M360.986,194.22l1.918-.527a4.63,4.63,0,0,1-2.253,1.808c-1.337.368-1.545-.764-1.545-.764Z" transform="translate(-340.922 -178.468)"/></g><path class="e" d="M373.635,189.528a1.068,1.068,0,1,0,1.068-1.068A1.068,1.068,0,0,0,373.635,189.528Z" transform="translate(-363.816 -176.847)"/></g><path class="e" d="M394.911,303.534,426.9,285.066c.931-.538.814-1.477-.261-2.1l-19.3-11.145a4.039,4.039,0,0,0-3.633-.151l-31.988,18.468c-.931.538-.814,1.477.261,2.1l19.3,11.145A4.039,4.039,0,0,0,394.911,303.534Z" transform="translate(-249.135 -114.319)"/><g transform="translate(236.693 189.233)"><g transform="translate(0 0)"><ellipse class="a" cx="14.07" cy="8.123" rx="14.07" ry="8.123" transform="matrix(-0.994, -0.11, 0.11, -0.994, 28.757, 31.943)"/><path class="i" d="M239.07,333.706l.495-4.467.843.093a10.219,10.219,0,0,1,4.212-3.147c6.61-2.9,16.684-1.783,22.5,2.493a10.219,10.219,0,0,1,3.421,3.993l.843.094-.493,4.443h0c-.251,2.36-2.064,4.548-5.381,6-6.611,2.9-16.684,1.782-22.5-2.494C240.1,338.58,238.809,336.057,239.07,333.706Z" transform="translate(-238.547 -320.054)"/><ellipse class="i" cx="16.007" cy="9.242" rx="16.007" ry="9.242" transform="translate(31.819 21.896) rotate(-173.678)"/><path class="e" d="M243.14,338.477c5.815,4.276,15.889,5.392,22.5,2.494,3.168-1.389,4.95-3.45,5.323-5.689-.137,2.463-1.946,4.764-5.388,6.274-6.61,2.9-16.684,1.783-22.5-2.494-3.029-2.226-4.289-4.868-3.884-7.3C239.066,334.027,240.353,336.428,243.14,338.477Z" transform="translate(-238.182 -322.281)"/></g><g transform="translate(5.96 7.314)"><path class="e" d="M268.12,336.148a.72.72,0,0,0,.484-.54l.647-5.987c.05-.456-.552-.9-1.342-.984s-1.471.213-1.521.67l-.537,4.964-14.206-3.36c-.764-.181-1.555.021-1.769.449s.232.923,1,1.1l15.915,3.763a2.284,2.284,0,0,0,1.218-.034C268.044,336.179,268.083,336.164,268.12,336.148Z" transform="translate(-249.822 -328.622)"/></g></g><g transform="translate(170.973 212.023)"><path class="a" d="M361.756,392.2l10.581-6.109-10.58-6.109-10.581,6.109Z" transform="translate(-351.175 -360.013)"/><path class="b" d="M366.506,372.115l10.58,6.109V366.006l-10.58-6.109Z" transform="translate(-366.506 -353.789)"/><path class="g" d="M361.756,363.264l10.58-6.109-10.58-6.108-10.58,6.109Z" transform="translate(-351.175 -351.047)"/><path class="c" d="M351.176,378.223l10.58-6.109V359.9l-10.58,6.109Z" transform="translate(-340.595 -353.789)"/><path class="e" d="M356.7,374.586l2.959-1.708v-3.417l-2.959,1.709Z" transform="translate(-342.306 -356.752)"/></g><path class="n" d="M448.689,316.136,494.826,289.5a1.555,1.555,0,0,0,0-2.694l-43.868-25.324-49.083,28.338a1.555,1.555,0,0,0,0,2.694L442.8,316.136A5.891,5.891,0,0,0,448.689,316.136Z" transform="translate(-337.924 -111.274)"/><g transform="translate(59.612 128.453)"><g transform="translate(52.483)"><path class="o" d="M396.127,233.246c0-2.929,2.061-4.123,4.6-2.661l43.15,24.861a2.792,2.792,0,0,1,1.265,2.186c0,.805-.565,1.133-1.262.73L400.729,233.5c-1.145-.66-2.075-.121-2.075,1.2l0,4.826c-.837-.052-1.678-.053-2.527-.038Z" transform="translate(-396.127 -229.961)"/><path class="o" d="M443.866,271.315l-43.15-15.723a10.187,10.187,0,0,1-4.609-7.966l0-3.862c.849-.015,1.69-.014,2.527.038l0,5.28a4.591,4.591,0,0,0,2.078,3.592l43.15,15.723a2.792,2.792,0,0,1,1.265,2.187C445.13,271.39,444.564,271.717,443.866,271.315Z" transform="translate(-396.098 -234.235)"/></g><path class="o" d="M497.034,281.792l-52.49,30.373-44.441-26.5-3.526-5.262.366,1.864.947-4.881,82.494,3.146,14.534-.936Z" transform="translate(-395.846 -244.653)"/><path class="p" d="M451.166,270.49l.014,6.461L400.449,306.3l-1.371-6.158Z" transform="translate(-351.72 -242.518)"/><path class="i" d="M396.647,260.762l52.407-30.32,47.25,27.477.1.675-52.484,30.364Z" transform="translate(-395.263 -230.11)"/><g transform="translate(3.907 33.074)"><path class="e" d="M486.741,291.03l-12.322-7.309a4.627,4.627,0,0,1-1.853-3.436l-.01-.968a1.336,1.336,0,0,1,.832-1.434l24.256,13.494L517.4,302.059l-.019,6.533Z" transform="translate(-472.557 -277.882)"/></g><path class="o" d="M396.127,299.7,448.2,269.576l1.1-.638,1.008-.584a2.537,2.537,0,0,1,.335,1.175.891.891,0,0,1-.359.81v0l-.008,0,0,0L397.805,300.7Z" transform="translate(-349.151 -241.856)"/><path class="e" d="M472.457,327.162l-.655.379-.121-.209.408-.321Z" transform="translate(-423.106 -260.03)"/><path class="e" d="M472.377,314.656l-.671.388.168-.366Z" transform="translate(-423.043 -256.202)"/><g transform="translate(0 30.364)"><path class="i" d="M519.9,299.442l-43.15-24.861c-2.539-1.462-4.6-.269-4.6,2.661l.01.968a10.184,10.184,0,0,0,4.608,7.965l43.15,24.861c.7.4,1.264.075,1.263-.73a2.794,2.794,0,0,0-1.265-2.187l-43.15-24.861a4.594,4.594,0,0,1-2.078-3.592l-.009-.968c0-1.321.929-1.859,2.074-1.2l43.15,24.861c.7.4,1.264.075,1.263-.73A2.791,2.791,0,0,0,519.9,299.442Z" transform="translate(-472.147 -273.956)"/></g><g transform="translate(1.712 29.965)"><path class="e" d="M517.648,311.775a2.794,2.794,0,0,0-1.265-2.187l-43.15-24.861a4.594,4.594,0,0,1-2.078-3.592l-.009-.968c0-.865.4-1.391,1-1.469a1.744,1.744,0,0,0-.3,1.069l.009.968a4.594,4.594,0,0,0,2.079,3.592l43.15,24.861a2.79,2.79,0,0,1,1.265,2.187c0,.61-.324.944-.785.9A1.217,1.217,0,0,0,517.648,311.775Z" transform="translate(-470.33 -275.026)"/><path class="e" d="M518.471,301.449a2.792,2.792,0,0,0-1.266-2.186L474.056,274.4a3.479,3.479,0,0,0-2.887-.482c.843-.72,2.133-.75,3.579.083l43.15,24.861a2.794,2.794,0,0,1,1.265,2.186c0,.611-.324.944-.785.9A1.216,1.216,0,0,0,518.471,301.449Z" transform="translate(-471.169 -273.378)"/></g><path class="e" d="M487.71,269.081,463.9,255.364,443.254,267.31l23.808,13.717Z" transform="translate(-418.739 -237.832)"/></g><g transform="translate(0.788 116.828)"><path class="a" d="M559.338,402.944l32.181-18.58c1.18-.681,1.032-1.87-.33-2.657l-34.109-19.744a5.114,5.114,0,0,0-4.6-.19L520.3,380.353c-1.18.681-1.032,1.87.33,2.656l34.109,19.744A5.116,5.116,0,0,0,559.338,402.944Z" transform="translate(-517.143 -259.033)"/><path class="q" d="M573.963,322.08l34.41-19.867a5.8,5.8,0,0,0,2.423-4.63V215.24c0-1.784-1.085-2.6-2.423-1.832l-34.41,19.867a5.8,5.8,0,0,0-2.423,4.63v82.344C571.54,322.033,572.625,322.853,573.963,322.08Z" transform="translate(-571.54 -213.118)"/><path class="c" d="M518.283,233.276l34.41-19.867a1.556,1.556,0,0,1,1.567-.135h0l39.285,22.663-1.851,6.85L555.874,344.8l-39.127-22.567-.019-.012-.069-.04v0a2.18,2.18,0,0,1-.8-1.932V237.905A5.8,5.8,0,0,1,518.283,233.276Z" transform="translate(-515.86 -213.118)"/><path class="g" d="M517.605,233.276l34.41-19.867a1.556,1.556,0,0,1,1.567-.135h0l39.285,22.663-1.851,6.85-9.85,28.053-1.854,1.07L515.86,235.277A4.844,4.844,0,0,1,517.605,233.276Z" transform="translate(-515.182 -213.118)"/><path class="d" d="M517.085,354.891l34.41-19.867a5.8,5.8,0,0,0,2.422-4.63V248.051c0-1.784-1.084-2.6-2.422-1.832l-34.41,19.867a5.8,5.8,0,0,0-2.423,4.63V353.06C514.662,354.844,515.747,355.664,517.085,354.891Z" transform="translate(-475.406 -223.284)"/><path class="r" d="M520.358,351.847l30.081-17.367a5.073,5.073,0,0,0,2.118-4.047V253.959c0-1.56-.948-2.277-2.118-1.6l-30.081,17.367a5.073,5.073,0,0,0-2.118,4.047v76.474C518.24,351.806,519.188,352.523,520.358,351.847Z" transform="translate(-476.514 -225.197)"/><path class="r" d="M520.358,351.847l30.081-17.367a5.073,5.073,0,0,0,2.118-4.047V253.959c0-1.56-.948-2.277-2.118-1.6l-30.081,17.367a5.073,5.073,0,0,0-2.118,4.047v76.474C518.24,351.806,519.188,352.523,520.358,351.847Z" transform="translate(-476.514 -225.197)"/><path class="b" d="M520.358,351.847l30.081-17.367a5.073,5.073,0,0,0,2.118-4.047V253.959c0-1.56-.948-2.277-2.118-1.6l-30.081,17.367a5.073,5.073,0,0,0-2.118,4.047v76.474C518.24,351.806,519.188,352.523,520.358,351.847Z" transform="translate(-476.514 -225.197)"/><path class="c" d="M519.072,351.269l30.08-17.368a5.072,5.072,0,0,0,2.118-4.047V253.381a2.452,2.452,0,0,0-.3-1.277c.756-.006,1.286.689,1.286,1.855v76.474a5.073,5.073,0,0,1-2.118,4.047l-30.081,17.367a1.226,1.226,0,0,1-1.814-.324A1.705,1.705,0,0,0,519.072,351.269Z" transform="translate(-476.21 -225.197)"/><g transform="translate(41.726 30.237)"><g transform="translate(0)"><path class="b" d="M524.974,342.853l11.181-6.454,17.832,10.3-31.131,17.973V346.9A5.073,5.073,0,0,1,524.974,342.853Z" transform="translate(-522.856 -281.551)"/><path class="b" d="M524.974,320.148l11.181-6.455,17.832,10.3-31.131,17.974V324.2A5.072,5.072,0,0,1,524.974,320.148Z" transform="translate(-522.856 -274.516)"/><path class="b" d="M524.974,297.442l11.181-6.454,17.832,10.3-31.131,17.973V301.49A5.074,5.074,0,0,1,524.974,297.442Z" transform="translate(-522.856 -267.481)"/><path class="b" d="M524.974,274.737l11.181-6.455,17.832,10.3-31.131,17.973V278.784A5.072,5.072,0,0,1,524.974,274.737Z" transform="translate(-522.856 -260.446)"/><path class="b" d="M524.974,271.22l24.752-14.291,4.261,2.46-31.131,17.974v-2.1A5.072,5.072,0,0,1,524.974,271.22Z" transform="translate(-522.856 -256.929)"/></g><path class="d" d="M522.856,278.467l31.131-17.974v9.9l-31.131,17.973Z" transform="translate(-522.856 -258.033)"/><path class="d" d="M522.856,301.172,553.987,283.2v9.9l-31.131,17.973Z" transform="translate(-522.856 -265.068)"/><path class="d" d="M522.856,323.878,553.987,305.9v9.9l-31.131,17.973Z" transform="translate(-522.856 -272.103)"/><path class="d" d="M522.856,346.583l31.131-17.973v9.9l-31.131,17.973Z" transform="translate(-522.856 -279.138)"/><path class="d" d="M522.856,369.289l31.131-17.973v9.9l-31.131,17.973Z" transform="translate(-522.856 -286.172)"/></g><g transform="translate(43.273 37.515)"><path class="c" d="M529.472,287l23.448-13.538a2.871,2.871,0,0,0,1.2-2.29v-2.653c0-.883-.537-1.288-1.2-.906l-23.448,13.538a2.872,2.872,0,0,0-1.2,2.291V286.1C528.273,286.981,528.81,287.387,529.472,287Z" transform="translate(-528.273 -267.474)"/><path class="s" d="M551.691,272.959a2.871,2.871,0,0,0,1.2-2.29v-2.652a1.7,1.7,0,0,0-.044-.382l.03-.017c.662-.382,1.2.023,1.2.906v2.653a2.871,2.871,0,0,1-1.2,2.29L529.428,287a.718.718,0,0,1-1.155-.525Z" transform="translate(-528.229 -267.474)"/><path class="e" d="M532.69,281.053l14.11-8.146a1.01,1.01,0,0,0,.422-.806h0c0-.311-.188-.453-.422-.319l-14.11,8.147a1.008,1.008,0,0,0-.422.805h0C532.268,281.045,532.456,281.188,532.69,281.053Z" transform="translate(-524.133 -268.793)"/></g><g transform="translate(43.273 53.089)"><path class="c" d="M529.472,309.57l23.448-13.538a2.87,2.87,0,0,0,1.2-2.29V291.09c0-.883-.537-1.289-1.2-.906l-23.448,13.538a2.87,2.87,0,0,0-1.2,2.29v2.652C528.273,309.546,528.81,309.952,529.472,309.57Z" transform="translate(-528.273 -290.039)"/><path class="s" d="M551.691,295.525a2.872,2.872,0,0,0,1.2-2.291v-2.652a1.688,1.688,0,0,0-.044-.381l.03-.017c.662-.382,1.2.023,1.2.906v2.652a2.872,2.872,0,0,1-1.2,2.291L529.428,309.57a.717.717,0,0,1-1.155-.525Z" transform="translate(-528.229 -290.039)"/><path class="e" d="M532.69,303.619l14.11-8.147a1.008,1.008,0,0,0,.422-.805h0c0-.311-.188-.453-.422-.319l-14.11,8.146a1.01,1.01,0,0,0-.422.806h0C532.268,303.611,532.456,303.753,532.69,303.619Z" transform="translate(-524.133 -291.359)"/></g><g transform="translate(43.273 68.808)"><path class="c" d="M529.472,332.345l23.448-13.538a2.872,2.872,0,0,0,1.2-2.291v-2.652c0-.883-.537-1.289-1.2-.906L529.472,326.5a2.872,2.872,0,0,0-1.2,2.291v2.652C528.273,332.322,528.81,332.728,529.472,332.345Z" transform="translate(-528.273 -312.814)"/><path class="t" d="M551.691,318.3a2.871,2.871,0,0,0,1.2-2.29v-2.653a1.7,1.7,0,0,0-.044-.381l.03-.017c.662-.382,1.2.023,1.2.906v2.652a2.871,2.871,0,0,1-1.2,2.291l-23.448,13.538a.718.718,0,0,1-1.155-.525Z" transform="translate(-528.229 -312.814)"/><path class="h" d="M532.69,326.394l14.11-8.146a1.01,1.01,0,0,0,.422-.806h0c0-.31-.188-.453-.422-.319l-14.11,8.147a1.008,1.008,0,0,0-.422.805h0C532.268,326.386,532.456,326.529,532.69,326.394Z" transform="translate(-524.133 -314.134)"/></g><g transform="translate(43.273 84.672)"><path class="c" d="M529.472,355.331l23.448-13.538a2.872,2.872,0,0,0,1.2-2.291v-2.652c0-.883-.537-1.289-1.2-.906l-23.448,13.538a2.872,2.872,0,0,0-1.2,2.291v2.652C528.273,355.308,528.81,355.714,529.472,355.331Z" transform="translate(-528.273 -335.8)"/><path class="s" d="M551.691,341.286a2.871,2.871,0,0,0,1.2-2.291v-2.652a1.7,1.7,0,0,0-.044-.381l.03-.017c.662-.382,1.2.023,1.2.906V339.5a2.872,2.872,0,0,1-1.2,2.291l-23.448,13.538a.718.718,0,0,1-1.155-.525Z" transform="translate(-528.229 -335.8)"/><path class="u" d="M532.69,349.38l14.11-8.147a1.008,1.008,0,0,0,.422-.805h0c0-.311-.188-.453-.422-.319l-14.11,8.147a1.009,1.009,0,0,0-.422.805h0C532.268,349.372,532.456,349.515,532.69,349.38Z" transform="translate(-524.133 -337.12)"/></g><g transform="translate(43.273 100.222)"><path class="c" d="M529.472,377.861l23.448-13.538a2.871,2.871,0,0,0,1.2-2.29v-2.653c0-.883-.537-1.288-1.2-.906l-23.448,13.538a2.872,2.872,0,0,0-1.2,2.291v2.652C528.273,377.838,528.81,378.244,529.472,377.861Z" transform="translate(-528.273 -358.331)"/><path class="s" d="M551.691,363.816a2.871,2.871,0,0,0,1.2-2.29v-2.652a1.7,1.7,0,0,0-.044-.382l.03-.017c.662-.382,1.2.023,1.2.906v2.653a2.871,2.871,0,0,1-1.2,2.29l-23.448,13.538a.718.718,0,0,1-1.155-.525Z" transform="translate(-528.229 -358.331)"/><path class="h" d="M532.69,371.91l14.11-8.146a1.01,1.01,0,0,0,.422-.806h0c0-.311-.188-.453-.422-.319l-14.11,8.147a1.009,1.009,0,0,0-.422.805h0C532.268,371.9,532.456,372.045,532.69,371.91Z" transform="translate(-524.133 -359.65)"/></g><path class="n" d="M525.308,260.493l-2.451,1.415v9.9l2.451-1.415Z" transform="translate(-452.451 -227.796)"/><path class="n" d="M525.308,283.2l-2.451,1.415v9.9l2.451-1.415Z" transform="translate(-452.451 -234.831)"/><path class="n" d="M525.308,305.9l-2.451,1.415v9.9l2.451-1.415Z" transform="translate(-452.451 -241.866)"/><path class="n" d="M525.308,328.61l-2.451,1.415v9.9l2.451-1.415Z" transform="translate(-452.451 -248.9)"/><path class="n" d="M525.308,351.315l-2.451,1.415v9.9l2.451-1.415Z" transform="translate(-452.451 -255.935)"/><path class="h" d="M555.912,286.239c0,.317.222.445.5.287a1.1,1.1,0,0,0,.5-.86c0-.317-.222-.444-.5-.286A1.1,1.1,0,0,0,555.912,286.239Z" transform="translate(-506.863 -235.486)"/><path class="u" d="M558.961,288c0,.316.222.444.5.286a1.1,1.1,0,0,0,.5-.86c0-.316-.222-.444-.5-.286A1.1,1.1,0,0,0,558.961,288Z" transform="translate(-512.016 -236.031)"/><path class="h" d="M562.01,289.76c0,.317.222.445.5.286a1.1,1.1,0,0,0,.5-.859c0-.317-.222-.445-.5-.287A1.1,1.1,0,0,0,562.01,289.76Z" transform="translate(-517.169 -236.576)"/><path class="u" d="M555.912,308.933c0,.317.222.445.5.287a1.1,1.1,0,0,0,.5-.86c0-.317-.222-.445-.5-.286A1.1,1.1,0,0,0,555.912,308.933Z" transform="translate(-506.863 -242.517)"/><path class="h" d="M558.961,310.694c0,.316.222.445.5.286a1.1,1.1,0,0,0,.5-.86c0-.316-.222-.444-.5-.286A1.1,1.1,0,0,0,558.961,310.694Z" transform="translate(-512.016 -243.062)"/><path class="e" d="M562.01,312.454c0,.317.222.444.5.286a1.1,1.1,0,0,0,.5-.859c0-.317-.222-.445-.5-.287A1.1,1.1,0,0,0,562.01,312.454Z" transform="translate(-517.169 -243.607)"/><path class="e" d="M555.912,331.8c0,.316.222.444.5.286a1.1,1.1,0,0,0,.5-.86c0-.316-.222-.444-.5-.286A1.1,1.1,0,0,0,555.912,331.8Z" transform="translate(-506.863 -249.601)"/><path class="u" d="M558.961,333.559c0,.317.222.445.5.286a1.1,1.1,0,0,0,.5-.859c0-.317-.222-.445-.5-.286A1.1,1.1,0,0,0,558.961,333.559Z" transform="translate(-512.016 -250.146)"/><path class="e" d="M562.01,335.319c0,.317.222.445.5.287a1.1,1.1,0,0,0,.5-.86c0-.317-.222-.445-.5-.286A1.1,1.1,0,0,0,562.01,335.319Z" transform="translate(-517.169 -250.692)"/><path class="e" d="M555.912,354.331c0,.317.222.445.5.286a1.1,1.1,0,0,0,.5-.859c0-.317-.222-.445-.5-.286A1.1,1.1,0,0,0,555.912,354.331Z" transform="translate(-506.863 -256.582)"/><path class="h" d="M558.961,356.091c0,.317.222.445.5.287a1.1,1.1,0,0,0,.5-.86c0-.317-.222-.444-.5-.286A1.1,1.1,0,0,0,558.961,356.091Z" transform="translate(-512.016 -257.128)"/><path class="h" d="M562.01,357.852c0,.316.222.444.5.286a1.1,1.1,0,0,0,.5-.86c0-.316-.222-.444-.5-.286A1.1,1.1,0,0,0,562.01,357.852Z" transform="translate(-517.169 -257.673)"/><path class="e" d="M555.912,377.171c0,.316.222.444.5.286a1.1,1.1,0,0,0,.5-.86c0-.316-.222-.444-.5-.286A1.1,1.1,0,0,0,555.912,377.171Z" transform="translate(-506.863 -263.658)"/><path class="u" d="M558.961,378.931c0,.317.222.445.5.286a1.1,1.1,0,0,0,.5-.859c0-.317-.222-.445-.5-.286A1.1,1.1,0,0,0,558.961,378.931Z" transform="translate(-512.016 -264.204)"/><path class="h" d="M562.01,380.691c0,.317.222.445.5.287a1.1,1.1,0,0,0,.5-.86c0-.317-.222-.444-.5-.286A1.1,1.1,0,0,0,562.01,380.691Z" transform="translate(-517.169 -264.749)"/><g transform="translate(4.625 33.358)"><path class="v" d="M608.5,348.57V278.453l-.145-.083-29.3-16.919v70.117l.145.084Zm-.58-69.781v68.776L579.63,331.232V262.457Z" transform="translate(-579.05 -261.451)"/></g><g transform="translate(10.639 53.167)"><path class="v" d="M590.933,301.891l13.14,7.586c.883.509,1.6-.032,1.6-1.208v-7.285a3.828,3.828,0,0,0-1.6-3.054l-13.14-7.586c-.883-.51-1.6.031-1.6,1.208v7.285A3.826,3.826,0,0,0,590.933,301.891Z" transform="translate(-589.335 -290.153)"/><path class="l" d="M590.786,290.2a2.11,2.11,0,0,0-.118.731v7.285a3.828,3.828,0,0,0,1.6,3.054l13.14,7.586a1.54,1.54,0,0,0,.319.141.932.932,0,0,1-1.48.478l-13.14-7.586a3.826,3.826,0,0,1-1.6-3.053v-7.285C589.507,290.522,590.056,289.979,590.786,290.2Z" transform="translate(-589.507 -290.153)"/><g transform="translate(3.558 4.145)"><g transform="translate(0 3.146)"><path class="e" d="M607.014,300.777c-.243-.14-.44-.026-.44.254v1.66a.972.972,0,0,0,.44.761c.243.141.44.027.44-.254v-1.659A.973.973,0,0,0,607.014,300.777Z" transform="translate(-606.574 -300.717)"/><path class="h" d="M604.283,302.654c-.243-.14-.44-.026-.44.254v1.452a.972.972,0,0,0,.44.762c.243.14.44.027.44-.254v-1.452A.974.974,0,0,0,604.283,302.654Z" transform="translate(-601.958 -301.299)"/><path class="u" d="M601.552,301.884c-.243-.14-.44-.027-.44.254v3.072a.972.972,0,0,0,.44.762c.243.14.44.026.44-.254v-3.072A.971.971,0,0,0,601.552,301.884Z" transform="translate(-597.342 -301.06)"/><path class="h" d="M598.821,300.9c-.243-.141-.44-.027-.44.253v4.843a.974.974,0,0,0,.44.762c.243.14.44.026.44-.254v-4.843A.971.971,0,0,0,598.821,300.9Z" transform="translate(-592.726 -300.754)"/><path class="h" d="M596.09,303.208c-.243-.14-.44-.026-.44.254V307.8a.971.971,0,0,0,.44.761c.243.141.44.027.44-.254V303.97A.973.973,0,0,0,596.09,303.208Z" transform="translate(-588.11 -301.47)"/><path class="e" d="M593.359,307.655c-.243-.141-.44-.027-.44.253v2.354a.971.971,0,0,0,.44.762c.243.14.44.027.44-.254v-2.354A.971.971,0,0,0,593.359,307.655Z" transform="translate(-583.494 -302.848)"/></g><path class="u" d="M607.45,299.227c0,.275-.193.387-.432.249a.953.953,0,0,1-.433-.749c0-.276.193-.388.433-.25A.956.956,0,0,1,607.45,299.227Z" transform="translate(-606.577 -296.858)"/><path class="e" d="M607.45,296.966c0,.276-.193.388-.432.25a.955.955,0,0,1-.433-.749c0-.276.193-.388.433-.25A.956.956,0,0,1,607.45,296.966Z" transform="translate(-606.577 -296.158)"/></g></g></g><g transform="translate(221.166 112.928)"><path class="a" d="M269.982,258.39l18.846-10.881c1.157-.667,1.012-1.834-.324-2.605l-18.2-10.507a5.017,5.017,0,0,0-4.512-.187l-18.847,10.881c-1.157.667-1.012,1.834.324,2.605l18.2,10.507A5.018,5.018,0,0,0,269.982,258.39Z" transform="translate(-246.166 -215.613)"/><path class="c" d="M246.174,230.628h0v-6.5l14.581-.008,5.04-2.91a5.017,5.017,0,0,1,4.512.187l4.7,2.715L289.6,224.1v6.688A1.307,1.307,0,0,1,288.83,232l-18.846,10.881a5.014,5.014,0,0,1-4.513-.187l-18.2-10.507A1.788,1.788,0,0,1,246.174,230.628Z" transform="translate(-246.168 -211.584)"/><path class="c" d="M246.171,220.761a5.209,5.209,0,0,1,2.419.634l4.7,2.715,14.594-.008v6.688a1.307,1.307,0,0,1-.775,1.209L248.265,242.88a4.089,4.089,0,0,1-2.095.448Z" transform="translate(-224.45 -211.586)"/><path class="d" d="M246.171,225.6h1.652v6.688a1.307,1.307,0,0,1-.775,1.209l-.876.506Z" transform="translate(-204.386 -213.085)"/><path class="d" d="M278.633,249.588a5.141,5.141,0,0,1-3.608-.041v-7.594h3.608Z" transform="translate(-255.108 -218.151)"/><path class="g" d="M269.982,232.1l18.846-10.881c1.157-.668,1.012-1.834-.324-2.605l-18.2-10.507a5.015,5.015,0,0,0-4.512-.187L246.947,218.8c-1.157.667-1.012,1.834.324,2.6l18.2,10.507A5.014,5.014,0,0,0,269.982,232.1Z" transform="translate(-246.166 -207.467)"/><path class="e" d="M247.269,225.441l18.2,10.507a5.016,5.016,0,0,0,4.513.187l18.846-10.881a1.748,1.748,0,0,0,.578-.512,1.213,1.213,0,0,1-.578,1.792l-18.846,10.881a5.014,5.014,0,0,1-4.513-.187l-18.2-10.506c-1.038-.6-1.353-1.436-.9-2.093A2.52,2.52,0,0,0,247.269,225.441Z" transform="translate(-246.163 -212.783)"/><g transform="translate(2.04 17.388)"><path class="h" d="M296.852,237.3a1.683,1.683,0,0,0,.761,1.318c.42.242.761.046.761-.44a1.682,1.682,0,0,0-.761-1.318C297.193,236.619,296.852,236.816,296.852,237.3Z" transform="translate(-291.954 -233.93)"/><path class="h" d="M300.4,235.253a1.683,1.683,0,0,0,.761,1.318c.421.243.761.046.761-.44a1.681,1.681,0,0,0-.761-1.318C300.742,234.57,300.4,234.767,300.4,235.253Z" transform="translate(-297.952 -233.295)"/><path class="h" d="M303.949,233.2a1.682,1.682,0,0,0,.761,1.318c.42.243.761.046.761-.439a1.683,1.683,0,0,0-.761-1.319C304.29,232.522,303.949,232.719,303.949,233.2Z" transform="translate(-303.949 -232.661)"/></g><g transform="translate(11.557 6.359)"><path class="d" d="M274.056,228.206l8.819-5.091c.541-.313.473-.859-.151-1.22l-8.516-4.916a2.345,2.345,0,0,0-2.111-.088l-8.82,5.091c-.541.313-.473.859.152,1.22l8.515,4.916A2.347,2.347,0,0,0,274.056,228.206Z" transform="translate(-262.912 -216.68)"/><path class="h" d="M277.143,226.487l1.22-.7c.075-.043.066-.119-.021-.168l-1.178-.681a.324.324,0,0,0-.292-.012l-1.22.7c-.075.043-.066.119.021.169l1.178.68A.324.324,0,0,0,277.143,226.487Z" transform="translate(-266.843 -219.225)"/><path class="c" d="M282.872,223.115l-.025.014c-.041-.029-.079-.059-.126-.087l-8.516-4.916a2.345,2.345,0,0,0-2.111-.088l-8.794,5.077c-.5-.357-.525-.843-.026-1.132l8.82-5.091a2.345,2.345,0,0,1,2.111.088l8.516,4.916C283.345,222.256,283.413,222.8,282.872,223.115Z" transform="translate(-262.908 -216.68)"/></g></g></g></svg>