<?xml version="1.0" encoding="UTF-8"?>
<!DOCTYPE svg PUBLIC "-//W3C//DTD SVG 1.1//EN" "http://www.w3.org/Graphics/SVG/1.1/DTD/svg11.dtd">
<svg xmlns="http://www.w3.org/2000/svg" version="1.1" width="1380px" height="1380px" style="shape-rendering:geometricPrecision; text-rendering:geometricPrecision; image-rendering:optimizeQuality; fill-rule:evenodd; clip-rule:evenodd" xmlns:xlink="http://www.w3.org/1999/xlink">

<g><path style="opacity:1" fill="#3e2117" d="M 1005.5,760.5 C 1009.17,760.5 1012.83,760.5 1016.5,760.5C 1016.5,761.167 1016.83,761.5 1017.5,761.5C 1016.88,763.423 1017.22,765.423 1018.5,767.5C 1021.84,769.163 1023.51,771.83 1023.5,775.5C 1030.5,773.833 1033.17,776.5 1031.5,783.5C 1034.17,783.5 1036.83,783.5 1039.5,783.5C 1039.43,788.028 1040.1,792.361 1041.5,796.5C 1041.58,799.572 1040.92,802.406 1039.5,805C 1039.77,806.607 1040.6,807.774 1042,808.5C 1042.18,811.365 1042.68,814.031 1043.5,816.5C 1040.07,825.258 1034.74,832.591 1027.5,838.5C 1029.75,834.424 1031.42,830.09 1032.5,825.5C 1039.26,823.771 1041.26,819.605 1038.5,813C 1036.89,812.342 1035.73,812.842 1035,814.5C 1034.67,811.833 1034.33,809.167 1034,806.5C 1030.64,803.737 1026.81,801.903 1022.5,801C 1012.67,800.486 1003.67,797.652 995.5,792.5C 992.602,799.228 988.102,804.561 982,808.5C 981.667,809.833 981.333,811.167 981,812.5C 979.413,811.273 978.079,811.606 977,813.5C 976.802,815.382 976.302,817.048 975.5,818.5C 975.5,818.167 975.5,817.833 975.5,817.5C 972.14,808.826 970.807,799.826 971.5,790.5C 972.213,787.406 973.213,784.406 974.5,781.5C 976.471,779.192 978.471,776.858 980.5,774.5C 983.599,772.855 986.932,771.688 990.5,771C 994.088,765.535 999.088,762.035 1005.5,760.5 Z"/></g>
<g><path style="opacity:1" fill="#39221b" d="M 1017.5,761.5 C 1018.5,761.5 1019.5,761.5 1020.5,761.5C 1037.37,766.217 1046.37,777.383 1047.5,795C 1046.97,802.339 1045.64,809.506 1043.5,816.5C 1042.68,814.031 1042.18,811.365 1042,808.5C 1040.6,807.774 1039.77,806.607 1039.5,805C 1040.92,802.406 1041.58,799.572 1041.5,796.5C 1040.1,792.361 1039.43,788.028 1039.5,783.5C 1036.83,783.5 1034.17,783.5 1031.5,783.5C 1033.17,776.5 1030.5,773.833 1023.5,775.5C 1023.51,771.83 1021.84,769.163 1018.5,767.5C 1017.22,765.423 1016.88,763.423 1017.5,761.5 Z"/></g>

<g><path style="opacity:1" fill="#f9c89c" d="M 1027.5,838.5 C 1024.71,841.462 1022.05,844.629 1019.5,848C 1020.64,849.402 1021.98,850.569 1023.5,851.5C 1023.5,852.167 1023.5,852.833 1023.5,853.5C 1015.97,862.301 1006.97,864.301 996.5,859.5C 995.5,858.833 994.5,858.167 993.5,857.5C 991.833,855.5 990.167,853.5 988.5,851.5C 988.833,851.5 989.167,851.5 989.5,851.5C 992.121,850.879 993.788,849.212 994.5,846.5C 992.637,842.75 990.303,839.417 987.5,836.5C 986.813,833.088 985.813,829.754 984.5,826.5C 982.861,825.678 981.195,825.011 979.5,824.5C 978.89,822.566 977.89,820.899 976.5,819.5C 976.167,819.5 975.833,819.5 975.5,819.5C 975.5,819.167 975.5,818.833 975.5,818.5C 976.302,817.048 976.802,815.382 977,813.5C 978.079,811.606 979.413,811.273 981,812.5C 981.333,811.167 981.667,809.833 982,808.5C 988.102,804.561 992.602,799.228 995.5,792.5C 1003.67,797.652 1012.67,800.486 1022.5,801C 1026.81,801.903 1030.64,803.737 1034,806.5C 1034.33,809.167 1034.67,811.833 1035,814.5C 1035.73,812.842 1036.89,812.342 1038.5,813C 1041.26,819.605 1039.26,823.771 1032.5,825.5C 1031.42,830.09 1029.75,834.424 1027.5,838.5 Z"/></g>
<g><path style="opacity:1" fill="#4b1f17" d="M 979.5,824.5 C 981.195,825.011 982.861,825.678 984.5,826.5C 985.813,829.754 986.813,833.088 987.5,836.5C 984.112,833.403 981.445,829.736 979.5,825.5C 979.5,825.167 979.5,824.833 979.5,824.5 Z"/></g>
<g><path style="opacity:1" fill="#fef9ef" d="M 999.5,835.5 C 1004.83,835.5 1010.17,835.5 1015.5,835.5C 1015.3,840.186 1012.8,842.186 1008,841.5C 1003,842.306 1000.16,840.306 999.5,835.5 Z"/></g>
<g><path style="opacity:1" fill="#f34041" d="M 993.5,857.5 C 994.5,858.167 995.5,858.833 996.5,859.5C 997.8,863.101 1000.47,864.767 1004.5,864.5C 1007.97,864.428 1011.3,863.761 1014.5,862.5C 1015.5,862.833 1016.5,863.167 1017.5,863.5C 1017.29,864.086 1016.96,864.586 1016.5,865C 1018.83,865.333 1021.17,865.667 1023.5,866C 1037.55,866.288 1051.55,866.455 1065.5,866.5C 1064.09,868.779 1063.09,871.946 1062.5,876C 1062.83,877.667 1063.17,879.333 1063.5,881C 1063.25,882.326 1062.58,883.326 1061.5,884C 1063.19,885.401 1063.86,887.234 1063.5,889.5C 1066.39,889.958 1068.89,889.291 1071,887.5C 1072.72,888.552 1073.72,887.886 1074,885.5C 1074.33,885.833 1074.67,886.167 1075,886.5C 1075.33,885.167 1075.67,883.833 1076,882.5C 1076.06,885.277 1077.23,887.277 1079.5,888.5C 1078.6,893.982 1080.1,898.649 1084,902.5C 1084.49,903.793 1084.66,905.127 1084.5,906.5C 1084.5,908.167 1084.5,909.833 1084.5,911.5C 1082.09,911.756 1080.42,910.756 1079.5,908.5C 1073.95,907.812 1068.45,907.146 1063,906.5C 1060.17,895.045 1058.84,883.378 1059,871.5C 1057.68,878.45 1056.84,885.45 1056.5,892.5C 1055.54,890.735 1055.21,888.735 1055.5,886.5C 1023.83,886.5 992.167,886.5 960.5,886.5C 959.251,878.652 958.585,878.652 958.5,886.5C 958.167,889.167 957.833,891.833 957.5,894.5C 956.167,894.5 954.833,894.5 953.5,894.5C 954.155,887.139 951.155,884.806 944.5,887.5C 944.5,885.167 944.5,882.833 944.5,880.5C 946.236,876.957 947.569,873.291 948.5,869.5C 951.997,868.5 953.831,866.167 954,862.5C 957.251,858.578 961.084,855.412 965.5,853C 972.5,852.333 979.5,852.333 986.5,853C 987.841,856.006 990.175,857.506 993.5,857.5 Z"/></g>
<g><path style="opacity:1" fill="#f34041" d="M 988.5,851.5 C 990.167,853.5 991.833,855.5 993.5,857.5C 990.175,857.506 987.841,856.006 986.5,853C 979.5,852.333 972.5,852.333 965.5,853C 961.084,855.412 957.251,858.578 954,862.5C 953.831,866.167 951.997,868.5 948.5,869.5C 952.238,861.594 957.905,855.427 965.5,851C 973.246,850.202 980.913,850.369 988.5,851.5 Z"/></g>
<g><path style="opacity:1" fill="#f34041" d="M 1047.5,852.5 C 1056.16,852.581 1062.99,856.247 1068,863.5C 1072.92,871.346 1076.76,879.679 1079.5,888.5C 1077.23,887.277 1076.06,885.277 1076,882.5C 1075.67,883.833 1075.33,885.167 1075,886.5C 1074.67,886.167 1074.33,885.833 1074,885.5C 1073.72,887.886 1072.72,888.552 1071,887.5C 1068.89,889.291 1066.39,889.958 1063.5,889.5C 1063.86,887.234 1063.19,885.401 1061.5,884C 1062.58,883.326 1063.25,882.326 1063.5,881C 1063.17,879.333 1062.83,877.667 1062.5,876C 1063.09,871.946 1064.09,868.779 1065.5,866.5C 1051.55,866.455 1037.55,866.288 1023.5,866C 1021.17,865.667 1018.83,865.333 1016.5,865C 1016.96,864.586 1017.29,864.086 1017.5,863.5C 1016.5,863.167 1015.5,862.833 1014.5,862.5C 1011.3,863.761 1007.97,864.428 1004.5,864.5C 1000.47,864.767 997.8,863.101 996.5,859.5C 1006.97,864.301 1015.97,862.301 1023.5,853.5C 1031.41,852.533 1039.41,852.199 1047.5,852.5 Z"/></g>
<g><path style="opacity:1" fill="#d64d4a" d="M 1079.5,888.5 C 1082.95,895.088 1085.62,902.088 1087.5,909.5C 1086.73,908.306 1085.73,907.306 1084.5,906.5C 1084.66,905.127 1084.49,903.793 1084,902.5C 1080.1,898.649 1078.6,893.982 1079.5,888.5 Z"/></g>
<g><path style="opacity:1" fill="#eb383a" d="M 1056.5,892.5 C 1056.8,902.187 1057.47,911.854 1058.5,921.5C 1058.5,923.696 1058.16,925.696 1057.5,927.5C 1056.77,924.921 1056.27,922.254 1056,919.5C 1055.53,918.069 1054.7,916.903 1053.5,916C 1022.83,915.333 992.167,915.333 961.5,916C 961,916.5 960.5,917 960,917.5C 959.83,906.992 959.33,896.659 958.5,886.5C 958.585,878.652 959.251,878.652 960.5,886.5C 992.167,886.5 1023.83,886.5 1055.5,886.5C 1055.21,888.735 1055.54,890.735 1056.5,892.5 Z"/></g>
<g><path style="opacity:1" fill="#e03234" d="M 1084.5,906.5 C 1085.73,907.306 1086.73,908.306 1087.5,909.5C 1090.22,916.807 1093.05,924.14 1096,931.5C 1096.33,934.5 1096.67,937.5 1097,940.5C 1097.33,939.833 1097.67,939.167 1098,938.5C 1098.31,942.922 1097.81,947.256 1096.5,951.5C 1095.17,952.167 1094.17,953.167 1093.5,954.5C 1087.48,957.675 1081.15,960.008 1074.5,961.5C 1069.82,961.669 1065.15,962.002 1060.5,962.5C 1060.33,957.489 1060.5,952.489 1061,947.5C 1062.65,947.307 1064.48,947.14 1066.5,947C 1068.32,946.8 1069.65,945.966 1070.5,944.5C 1072.33,942.504 1072.83,940.171 1072,937.5C 1068.72,931.296 1066.05,924.963 1064,918.5C 1063.52,919.448 1063.35,920.448 1063.5,921.5C 1062.71,920.391 1062.21,919.058 1062,917.5C 1061.86,923.581 1061.2,929.581 1060,935.5C 1059.67,935.833 1059.33,936.167 1059,936.5C 1058.3,933.522 1057.8,930.522 1057.5,927.5C 1058.16,925.696 1058.5,923.696 1058.5,921.5C 1057.47,911.854 1056.8,902.187 1056.5,892.5C 1056.84,885.45 1057.68,878.45 1059,871.5C 1058.84,883.378 1060.17,895.045 1063,906.5C 1068.45,907.146 1073.95,907.812 1079.5,908.5C 1080.42,910.756 1082.09,911.756 1084.5,911.5C 1084.5,909.833 1084.5,908.167 1084.5,906.5 Z"/></g>
<g><path style="opacity:1" fill="#e43436" d="M 944.5,880.5 C 944.5,882.833 944.5,885.167 944.5,887.5C 951.155,884.806 954.155,887.139 953.5,894.5C 954.833,894.5 956.167,894.5 957.5,894.5C 957.833,891.833 958.167,889.167 958.5,886.5C 959.33,896.659 959.83,906.992 960,917.5C 960.5,917 961,916.5 961.5,916C 992.167,915.333 1022.83,915.333 1053.5,916C 1054.7,916.903 1055.53,918.069 1056,919.5C 1056.27,922.254 1056.77,924.921 1057.5,927.5C 1035.53,928.468 1013.53,928.801 991.5,928.5C 968.835,928.093 946.168,927.759 923.5,927.5C 924.508,924.156 925.508,920.823 926.5,917.5C 926.833,917.5 927.167,917.5 927.5,917.5C 932.697,908.758 936.697,899.424 939.5,889.5C 939.5,888.833 939.833,888.5 940.5,888.5C 941.833,885.833 943.167,883.167 944.5,880.5 Z"/></g>
<g><path style="opacity:1" fill="#c03f46" d="M 922.5,928.5 C 922.5,928.167 922.5,927.833 922.5,927.5C 922.833,927.5 923.167,927.5 923.5,927.5C 946.168,927.759 968.835,928.093 991.5,928.5C 991.5,928.833 991.5,929.167 991.5,929.5C 968.497,929.35 945.497,929.017 922.5,928.5 Z"/></g>
<g><path style="opacity:1" fill="#c52d33" d="M 1063.5,921.5 C 1063.5,929.5 1063.5,937.5 1063.5,945.5C 1065.9,945.552 1068.24,945.219 1070.5,944.5C 1069.65,945.966 1068.32,946.8 1066.5,947C 1064.48,947.14 1062.65,947.307 1061,947.5C 1060.5,952.489 1060.33,957.489 1060.5,962.5C 1065.15,962.002 1069.82,961.669 1074.5,961.5C 1074.5,961.833 1074.5,962.167 1074.5,962.5C 1069.53,963.164 1064.53,963.497 1059.5,963.5C 1059.39,952.937 1058.39,942.604 1056.5,932.5C 1056.5,931.833 1056.17,931.5 1055.5,931.5C 1034.35,929.96 1013.02,929.294 991.5,929.5C 991.5,929.167 991.5,928.833 991.5,928.5C 1013.53,928.801 1035.53,928.468 1057.5,927.5C 1057.8,930.522 1058.3,933.522 1059,936.5C 1059.33,936.167 1059.67,935.833 1060,935.5C 1061.2,929.581 1061.86,923.581 1062,917.5C 1062.21,919.058 1062.71,920.391 1063.5,921.5 Z"/></g>
<g><path style="opacity:1" fill="#e4aeb0" d="M 921.5,929.5 C 921.5,928.833 921.833,928.5 922.5,928.5C 945.497,929.017 968.497,929.35 991.5,929.5C 991.5,929.833 991.5,930.167 991.5,930.5C 968.122,930.813 944.788,930.48 921.5,929.5 Z"/></g>
<g><path style="opacity:1" fill="#dc7f82" d="M 991.5,930.5 C 991.5,930.167 991.5,929.833 991.5,929.5C 1013.02,929.294 1034.35,929.96 1055.5,931.5C 1034.17,931.019 1012.84,930.685 991.5,930.5 Z"/></g>
<g><path style="opacity:1" fill="#bcbbbd" d="M 921.5,929.5 C 944.788,930.48 968.122,930.813 991.5,930.5C 1012.84,930.685 1034.17,931.019 1055.5,931.5C 1056.17,931.5 1056.5,931.833 1056.5,932.5C 1056.5,938.5 1056.5,944.5 1056.5,950.5C 1055.66,951.641 1054.99,952.974 1054.5,954.5C 1049.5,955.167 1044.5,955.833 1039.5,956.5C 1038.83,957.167 1038.17,957.833 1037.5,958.5C 1024.22,960.139 1010.89,960.806 997.5,960.5C 997.784,962.415 997.451,964.081 996.5,965.5C 994.86,961.503 991.86,959.17 987.5,958.5C 982.599,959.41 980.266,962.41 980.5,967.5C 978.508,967.672 976.842,967.005 975.5,965.5C 973.807,967.027 971.973,968.36 970,969.5C 968.383,968.149 967.216,966.482 966.5,964.5C 965.713,965.242 965.047,966.075 964.5,967C 959.041,967.358 953.708,968.358 948.5,970C 941.833,970.667 935.167,970.667 928.5,970C 927.643,969.311 926.977,968.478 926.5,967.5C 927.562,964.897 927.728,962.23 927,959.5C 924.099,963.355 921.266,963.355 918.5,959.5C 918.065,956.843 917.065,954.509 915.5,952.5C 915.5,952.167 915.5,951.833 915.5,951.5C 915.69,945.904 914.69,940.571 912.5,935.5C 912.5,933.5 912.5,931.5 912.5,929.5C 915.5,929.5 918.5,929.5 921.5,929.5 Z"/></g>
<g><path style="opacity:1" fill="#fceae6" d="M 1070.5,944.5 C 1068.24,945.219 1065.9,945.552 1063.5,945.5C 1063.5,937.5 1063.5,929.5 1063.5,921.5C 1063.35,920.448 1063.52,919.448 1064,918.5C 1066.05,924.963 1068.72,931.296 1072,937.5C 1072.83,940.171 1072.33,942.504 1070.5,944.5 Z"/></g>
<g><path style="opacity:1" fill="#fedebd" d="M 351.5,938.5 C 354.079,938.865 356.412,938.865 358.5,938.5C 361.516,939.343 364.183,940.843 366.5,943C 364.249,942.793 361.915,942.627 359.5,942.5C 356.833,941.167 354.167,939.833 351.5,938.5 Z"/></g>
<g><path style="opacity:1" fill="#225976" d="M 914.5,968.5 C 915.5,968.5 916.5,968.5 917.5,968.5C 919.936,970.079 921.269,972.412 921.5,975.5C 923.287,983.561 925.287,991.561 927.5,999.5C 926.21,998.942 925.377,997.942 925,996.5C 923.986,991.418 922.653,986.418 921,981.5C 920.015,986.689 920.515,991.689 922.5,996.5C 920.05,998.867 917.05,999.867 913.5,999.5C 913.361,1002.59 912.361,1005.25 910.5,1007.5C 906.915,1008.58 903.249,1009.25 899.5,1009.5C 897.932,1012.99 896.598,1016.66 895.5,1020.5C 896.829,1022.87 896.163,1024.53 893.5,1025.5C 892.167,1024.5 890.833,1023.5 889.5,1022.5C 888.5,1021.83 887.5,1021.17 886.5,1020.5C 881.013,1014.83 876.013,1008.83 871.5,1002.5C 869.78,999.008 868.446,995.341 867.5,991.5C 867.334,987.486 867.501,983.486 868,979.5C 869.947,975.724 872.447,972.39 875.5,969.5C 875.842,968.662 876.508,968.328 877.5,968.5C 889.79,965.882 902.123,965.882 914.5,968.5 Z"/></g>

<g><path style="opacity:1" fill="#b3afae" d="M 1056.5,950.5 C 1057.57,956.083 1058.41,961.749 1059,967.5C 1062.58,965.814 1066.41,964.814 1070.5,964.5C 1070.24,966.81 1070.24,968.81 1070.5,970.5C 1067.74,980.384 1065.41,990.384 1063.5,1000.5C 1062.83,1000.83 1062.17,1001.17 1061.5,1001.5C 1061.06,1001.57 1060.73,1001.4 1060.5,1001C 1061.28,998.26 1061.78,995.426 1062,992.5C 1062.67,996.5 1063.33,996.5 1064,992.5C 1065.46,986.777 1065.46,981.11 1064,975.5C 1063.59,975.957 1063.09,976.291 1062.5,976.5C 1061.67,981.467 1061.17,986.467 1061,991.5C 1059.85,985.869 1058.02,980.535 1055.5,975.5C 1053.67,975.167 1051.83,974.833 1050,974.5C 1030.6,976.101 1011.27,977.768 992,979.5C 990.416,978.139 988.582,977.472 986.5,977.5C 985.925,981.473 983.758,982.473 980,980.5C 978.691,986.539 976.524,986.539 973.5,980.5C 969.614,978.946 967.281,980.279 966.5,984.5C 967.928,987.431 969.928,989.931 972.5,992C 972.167,992.167 971.833,992.333 971.5,992.5C 967.499,989.336 963.166,987.003 958.5,985.5C 958.719,986.675 958.386,987.675 957.5,988.5C 951.29,983.792 944.29,982.292 936.5,984C 931.891,983.404 928.891,985.238 927.5,989.5C 925.623,984.794 923.623,980.127 921.5,975.5C 921.269,972.412 919.936,970.079 917.5,968.5C 918.693,968.03 919.36,967.03 919.5,965.5C 919.16,963.488 918.827,961.488 918.5,959.5C 921.266,963.355 924.099,963.355 927,959.5C 927.728,962.23 927.562,964.897 926.5,967.5C 926.977,968.478 927.643,969.311 928.5,970C 935.167,970.667 941.833,970.667 948.5,970C 953.708,968.358 959.041,967.358 964.5,967C 965.047,966.075 965.713,965.242 966.5,964.5C 967.216,966.482 968.383,968.149 970,969.5C 971.973,968.36 973.807,967.027 975.5,965.5C 976.842,967.005 978.508,967.672 980.5,967.5C 981.228,969.735 982.561,971.568 984.5,973C 991.82,975.839 995.82,973.339 996.5,965.5C 997.451,964.081 997.784,962.415 997.5,960.5C 1010.89,960.806 1024.22,960.139 1037.5,958.5C 1038.17,957.833 1038.83,957.167 1039.5,956.5C 1044.5,955.833 1049.5,955.167 1054.5,954.5C 1054.99,952.974 1055.66,951.641 1056.5,950.5 Z"/></g>

<g><path style="opacity:1" fill="#204563" d="M 1125.5,983.5 C 1124.07,990.365 1121.07,996.365 1116.5,1001.5C 1115.25,1001.91 1114.08,1001.24 1113,999.5C 1112.04,1000.58 1111.21,1001.75 1110.5,1003C 1106.23,1003.03 1102.23,1004.03 1098.5,1006C 1096.56,1006.91 1095.56,1008.41 1095.5,1010.5C 1089.86,1011.66 1084.53,1013.49 1079.5,1016C 1072.39,1021.19 1064.72,1025.36 1056.5,1028.5C 1055.91,1028.29 1055.41,1027.96 1055,1027.5C 1053.51,1029 1051.68,1029.84 1049.5,1030C 1047.09,1032.33 1044.75,1034.67 1042.5,1037C 1040.5,1036.67 1038.5,1036.33 1036.5,1036C 1031.19,1042.82 1024.19,1046.15 1015.5,1046C 1012.95,1047.38 1010.28,1048.54 1007.5,1049.5C 1006.41,1050.61 1006.41,1051.61 1007.5,1052.5C 1009.12,1053.15 1010.78,1053.65 1012.5,1054C 1002.66,1054.55 992.989,1055.39 983.5,1056.5C 980.518,1056.04 977.518,1055.7 974.5,1055.5C 975.952,1054.7 977.618,1054.2 979.5,1054C 978.207,1053.51 976.873,1053.34 975.5,1053.5C 975.5,1052.5 975.5,1051.5 975.5,1050.5C 981.021,1051.41 985.688,1049.91 989.5,1046C 994.599,1045.53 998.765,1043.37 1002,1039.5C 1014.95,1034.48 1027.45,1028.65 1039.5,1022C 1040.06,1020.32 1041.06,1018.99 1042.5,1018C 1050.34,1017.3 1057.34,1014.63 1063.5,1010C 1070.22,1009.43 1075.89,1006.77 1080.5,1002C 1088.14,1000.01 1095.14,996.678 1101.5,992C 1104.5,991.667 1107.5,991.333 1110.5,991C 1113.73,988.021 1117.07,985.188 1120.5,982.5C 1122.43,982.59 1123.59,983.59 1124,985.5C 1124.33,984.167 1124.67,982.833 1125,981.5C 1125.46,982.094 1125.63,982.761 1125.5,983.5 Z"/></g>
<g><path style="opacity:1" fill="#a9a6a4" d="M 1061.5,1001.5 C 1017.66,1002.25 973.658,1001.92 929.5,1000.5C 928.833,1000.17 928.167,999.833 927.5,999.5C 925.287,991.561 923.287,983.561 921.5,975.5C 923.623,980.127 925.623,984.794 927.5,989.5C 928.891,985.238 931.891,983.404 936.5,984C 944.29,982.292 951.29,983.792 957.5,988.5C 958.386,987.675 958.719,986.675 958.5,985.5C 963.166,987.003 967.499,989.336 971.5,992.5C 971.833,992.333 972.167,992.167 972.5,992C 969.928,989.931 967.928,987.431 966.5,984.5C 967.281,980.279 969.614,978.946 973.5,980.5C 976.524,986.539 978.691,986.539 980,980.5C 983.758,982.473 985.925,981.473 986.5,977.5C 988.582,977.472 990.416,978.139 992,979.5C 1011.27,977.768 1030.6,976.101 1050,974.5C 1051.83,974.833 1053.67,975.167 1055.5,975.5C 1058.02,980.535 1059.85,985.869 1061,991.5C 1061.17,986.467 1061.67,981.467 1062.5,976.5C 1063.09,976.291 1063.59,975.957 1064,975.5C 1065.46,981.11 1065.46,986.777 1064,992.5C 1063.33,996.5 1062.67,996.5 1062,992.5C 1061.78,995.426 1061.28,998.26 1060.5,1001C 1060.73,1001.4 1061.06,1001.57 1061.5,1001.5 Z"/></g>
<g><path style="opacity:1" fill="#f5d463" d="M 260.5,981.5 C 264.702,982.18 268.036,984.347 270.5,988C 277.011,992.359 283.344,996.859 289.5,1001.5C 287.883,1000.96 286.216,1000.63 284.5,1000.5C 278.42,996.594 272.754,992.094 267.5,987C 266.255,986.209 264.922,985.709 263.5,985.5C 262.5,984.167 261.5,982.833 260.5,981.5 Z"/></g>
<g><path style="opacity:1" fill="#234663" d="M 929.5,1000.5 C 973.658,1001.92 1017.66,1002.25 1061.5,1001.5C 1062.17,1001.17 1062.83,1000.83 1063.5,1000.5C 1063.5,1001.5 1063.5,1002.5 1063.5,1003.5C 1050.83,1003.5 1038.17,1003.5 1025.5,1003.5C 1025.5,1004.83 1025.5,1006.17 1025.5,1007.5C 1024.13,1007.34 1022.79,1007.51 1021.5,1008C 1018.16,1011.33 1014.5,1014.16 1010.5,1016.5C 1010.12,1015.07 1009.12,1014.24 1007.5,1014C 997.483,1013.17 987.483,1013.33 977.5,1014.5C 977.291,1015.09 976.957,1015.59 976.5,1016C 981.838,1021.34 988.172,1024.5 995.5,1025.5C 992.688,1027.34 989.688,1029.01 986.5,1030.5C 978.762,1032.64 971.096,1034.97 963.5,1037.5C 964.242,1038.29 965.075,1038.95 966,1039.5C 966.801,1042.37 966.634,1045.03 965.5,1047.5C 965.663,1045.14 965.497,1042.81 965,1040.5C 964.329,1039.75 963.496,1039.41 962.5,1039.5C 961.71,1038.21 960.71,1037.04 959.5,1036C 948.582,1031.41 937.249,1028.58 925.5,1027.5C 925.5,1026.83 925.167,1026.5 924.5,1026.5C 922.833,1026.5 921.167,1026.5 919.5,1026.5C 920.871,1025.21 922.705,1024.55 925,1024.5C 931.248,1027.27 937.414,1027.11 943.5,1024C 942,1021.17 939.833,1019 937,1017.5C 936.288,1015.3 936.955,1013.64 939,1012.5C 944.354,1017.83 949.687,1017.83 955,1012.5C 956.009,1010.98 956.509,1009.31 956.5,1007.5C 953.195,1009.12 949.862,1010.78 946.5,1012.5C 947.834,1009.64 949.834,1007.14 952.5,1005C 955.956,1004.82 959.289,1004.15 962.5,1003C 951.121,1003.15 940.121,1002.32 929.5,1000.5 Z"/></g>
<g><path style="opacity:1" fill="#265573" d="M 927.5,999.5 C 928.167,999.833 928.833,1000.17 929.5,1000.5C 940.121,1002.32 951.121,1003.15 962.5,1003C 959.289,1004.15 955.956,1004.82 952.5,1005C 949.834,1007.14 947.834,1009.64 946.5,1012.5C 949.862,1010.78 953.195,1009.12 956.5,1007.5C 956.509,1009.31 956.009,1010.98 955,1012.5C 949.687,1017.83 944.354,1017.83 939,1012.5C 936.955,1013.64 936.288,1015.3 937,1017.5C 939.833,1019 942,1021.17 943.5,1024C 937.414,1027.11 931.248,1027.27 925,1024.5C 922.705,1024.55 920.871,1025.21 919.5,1026.5C 914.271,1026.78 910.271,1029.11 907.5,1033.5C 904.605,1032.6 901.938,1031.27 899.5,1029.5C 897.5,1028.17 895.5,1026.83 893.5,1025.5C 896.163,1024.53 896.829,1022.87 895.5,1020.5C 896.598,1016.66 897.932,1012.99 899.5,1009.5C 903.249,1009.25 906.915,1008.58 910.5,1007.5C 912.361,1005.25 913.361,1002.59 913.5,999.5C 917.05,999.867 920.05,998.867 922.5,996.5C 920.515,991.689 920.015,986.689 921,981.5C 922.653,986.418 923.986,991.418 925,996.5C 925.377,997.942 926.21,998.942 927.5,999.5 Z"/></g>
<g><path style="opacity:1" fill="#215673" d="M 1126.5,970.5 C 1125.68,973.641 1125.18,976.975 1125,980.5C 1124.81,978.1 1124.31,975.766 1123.5,973.5C 1116.62,977.061 1109.95,980.894 1103.5,985C 1097.66,986.71 1091.99,988.877 1086.5,991.5C 1085.91,991.291 1085.41,990.957 1085,990.5C 1083.83,993 1082,994.833 1079.5,996C 1074.83,997.67 1070.49,999.837 1066.5,1002.5C 1068.79,1004.19 1071.13,1005.03 1073.5,1005C 1072.67,1005.91 1071.67,1006.58 1070.5,1007C 1066.04,1007.41 1061.71,1007.07 1057.5,1006C 1046.23,1011.76 1034.57,1016.76 1022.5,1021C 1023.78,1022.3 1023.62,1023.46 1022,1024.5C 1021.69,1023.69 1021.19,1023.03 1020.5,1022.5C 1014.53,1027.82 1007.53,1030.98 999.5,1032C 996.486,1033.67 994.486,1035.67 993.5,1038C 989.953,1038.31 986.62,1039.14 983.5,1040.5C 983.5,1041.5 983.5,1042.5 983.5,1043.5C 981.396,1043.2 979.396,1043.53 977.5,1044.5C 976.693,1048.4 975.026,1049.06 972.5,1046.5C 970.65,1047.24 969.984,1048.24 970.5,1049.5C 968.785,1049.4 967.119,1049.07 965.5,1048.5C 965.5,1048.17 965.5,1047.83 965.5,1047.5C 966.634,1045.03 966.801,1042.37 966,1039.5C 965.075,1038.95 964.242,1038.29 963.5,1037.5C 971.096,1034.97 978.762,1032.64 986.5,1030.5C 989.688,1029.01 992.688,1027.34 995.5,1025.5C 1001.01,1023.25 1006.01,1020.25 1010.5,1016.5C 1014.5,1014.16 1018.16,1011.33 1021.5,1008C 1022.79,1007.51 1024.13,1007.34 1025.5,1007.5C 1025.5,1006.17 1025.5,1004.83 1025.5,1003.5C 1038.17,1003.5 1050.83,1003.5 1063.5,1003.5C 1063.5,1002.5 1063.5,1001.5 1063.5,1000.5C 1065.41,990.384 1067.74,980.384 1070.5,970.5C 1076,966.581 1081.67,962.914 1087.5,959.5C 1089.15,959.34 1090.49,958.674 1091.5,957.5C 1096.73,956.072 1102.07,955.072 1107.5,954.5C 1117.49,955.493 1123.83,960.826 1126.5,970.5 Z"/></g>
<g><path style="opacity:1" fill="#fbf4dc" d="M 411.5,1011.5 C 412.167,1011.5 412.5,1011.83 412.5,1012.5C 413.167,1013.83 414.167,1014.83 415.5,1015.5C 418.484,1018.33 421.817,1020.66 425.5,1022.5C 422.774,1022.74 420.441,1021.9 418.5,1020C 415.24,1019.22 412.073,1019.38 409,1020.5C 407.559,1019.74 406.059,1019.07 404.5,1018.5C 403.378,1020.04 403.711,1021.38 405.5,1022.5C 403.402,1023.45 401.235,1023.45 399,1022.5C 396.429,1023.47 393.929,1024.64 391.5,1026C 388.854,1026.5 386.187,1026.66 383.5,1026.5C 386.212,1024.43 389.212,1023.1 392.5,1022.5C 394.086,1021.85 395.753,1021.35 397.5,1021C 402.323,1017.92 406.99,1014.75 411.5,1011.5 Z"/></g>
<g><path style="opacity:1" fill="#1f3351" d="M 1010.5,1016.5 C 1006.01,1020.25 1001.01,1023.25 995.5,1025.5C 988.172,1024.5 981.838,1021.34 976.5,1016C 976.957,1015.59 977.291,1015.09 977.5,1014.5C 987.483,1013.33 997.483,1013.17 1007.5,1014C 1009.12,1014.24 1010.12,1015.07 1010.5,1016.5 Z"/></g>
<g><path style="opacity:1" fill="#214d6c" d="M 1126.5,970.5 C 1126.82,975.032 1126.48,979.366 1125.5,983.5C 1125.63,982.761 1125.46,982.094 1125,981.5C 1124.67,982.833 1124.33,984.167 1124,985.5C 1123.59,983.59 1122.43,982.59 1120.5,982.5C 1117.07,985.188 1113.73,988.021 1110.5,991C 1107.5,991.333 1104.5,991.667 1101.5,992C 1095.14,996.678 1088.14,1000.01 1080.5,1002C 1075.89,1006.77 1070.22,1009.43 1063.5,1010C 1057.34,1014.63 1050.34,1017.3 1042.5,1018C 1041.06,1018.99 1040.06,1020.32 1039.5,1022C 1027.45,1028.65 1014.95,1034.48 1002,1039.5C 998.765,1043.37 994.599,1045.53 989.5,1046C 985.688,1049.91 981.021,1051.41 975.5,1050.5C 975.5,1051.5 975.5,1052.5 975.5,1053.5C 976.873,1053.34 978.207,1053.51 979.5,1054C 977.618,1054.2 975.952,1054.7 974.5,1055.5C 970.127,1054.66 965.793,1053.66 961.5,1052.5C 961.167,1052.5 960.833,1052.5 960.5,1052.5C 962.142,1051.2 963.809,1049.86 965.5,1048.5C 967.119,1049.07 968.785,1049.4 970.5,1049.5C 969.984,1048.24 970.65,1047.24 972.5,1046.5C 975.026,1049.06 976.693,1048.4 977.5,1044.5C 979.396,1043.53 981.396,1043.2 983.5,1043.5C 983.5,1042.5 983.5,1041.5 983.5,1040.5C 986.62,1039.14 989.953,1038.31 993.5,1038C 994.486,1035.67 996.486,1033.67 999.5,1032C 1007.53,1030.98 1014.53,1027.82 1020.5,1022.5C 1021.19,1023.03 1021.69,1023.69 1022,1024.5C 1023.62,1023.46 1023.78,1022.3 1022.5,1021C 1034.57,1016.76 1046.23,1011.76 1057.5,1006C 1061.71,1007.07 1066.04,1007.41 1070.5,1007C 1071.67,1006.58 1072.67,1005.91 1073.5,1005C 1071.13,1005.03 1068.79,1004.19 1066.5,1002.5C 1070.49,999.837 1074.83,997.67 1079.5,996C 1082,994.833 1083.83,993 1085,990.5C 1085.41,990.957 1085.91,991.291 1086.5,991.5C 1091.99,988.877 1097.66,986.71 1103.5,985C 1109.95,980.894 1116.62,977.061 1123.5,973.5C 1124.31,975.766 1124.81,978.1 1125,980.5C 1125.18,976.975 1125.68,973.641 1126.5,970.5 Z"/></g>
<g><path style="opacity:1" fill="#f2d056" d="M 392.5,1022.5 C 389.212,1023.1 386.212,1024.43 383.5,1026.5C 379.833,1026.5 376.167,1026.5 372.5,1026.5C 372.704,1023.48 373.037,1020.48 373.5,1017.5C 370.944,1018.7 368.611,1020.37 366.5,1022.5C 367.63,1020.69 368.296,1018.69 368.5,1016.5C 370.591,1016.68 372.591,1016.35 374.5,1015.5C 375.068,1018.41 375.068,1021.41 374.5,1024.5C 380.535,1024.09 386.535,1023.43 392.5,1022.5 Z"/></g>
<g><path style="opacity:1" fill="#213653" d="M 1116.5,1001.5 C 1108.39,1011.54 1099.06,1020.21 1088.5,1027.5C 1056.47,1047.59 1021.47,1057.26 983.5,1056.5C 992.989,1055.39 1002.66,1054.55 1012.5,1054C 1010.78,1053.65 1009.12,1053.15 1007.5,1052.5C 1006.41,1051.61 1006.41,1050.61 1007.5,1049.5C 1010.28,1048.54 1012.95,1047.38 1015.5,1046C 1024.19,1046.15 1031.19,1042.82 1036.5,1036C 1038.5,1036.33 1040.5,1036.67 1042.5,1037C 1044.75,1034.67 1047.09,1032.33 1049.5,1030C 1051.68,1029.84 1053.51,1029 1055,1027.5C 1055.41,1027.96 1055.91,1028.29 1056.5,1028.5C 1064.72,1025.36 1072.39,1021.19 1079.5,1016C 1084.53,1013.49 1089.86,1011.66 1095.5,1010.5C 1095.56,1008.41 1096.56,1006.91 1098.5,1006C 1102.23,1004.03 1106.23,1003.03 1110.5,1003C 1111.21,1001.75 1112.04,1000.58 1113,999.5C 1114.08,1001.24 1115.25,1001.91 1116.5,1001.5 Z"/></g>
<g><path style="opacity:1" fill="#d6d7d7" d="M 1088.5,1027.5 C 1088.39,1028.12 1088.06,1028.62 1087.5,1029C 1099.64,1029.72 1111.64,1031.39 1123.5,1034C 1128.68,1035.5 1133.68,1037.5 1138.5,1040C 1141.26,1042.57 1140.93,1044.74 1137.5,1046.5C 1131.03,1049.28 1124.36,1051.45 1117.5,1053C 1052.2,1062.2 986.867,1063.7 921.5,1057.5C 934.222,1057.37 946.889,1056.53 959.5,1055C 960.381,1054.29 961.047,1053.46 961.5,1052.5C 965.793,1053.66 970.127,1054.66 974.5,1055.5C 977.518,1055.7 980.518,1056.04 983.5,1056.5C 1021.47,1057.26 1056.47,1047.59 1088.5,1027.5 Z"/></g>
<g><path style="opacity:1" fill="#d9d9d9" d="M 899.5,1029.5 C 901.938,1031.27 904.605,1032.6 907.5,1033.5C 904.823,1038.15 904.99,1042.82 908,1047.5C 910.599,1050.2 913.433,1052.54 916.5,1054.5C 918.071,1055.31 919.738,1055.64 921.5,1055.5C 921.5,1056.17 921.5,1056.83 921.5,1057.5C 904.525,1056.4 887.858,1053.57 871.5,1049C 869.246,1047.62 867.08,1046.12 865,1044.5C 864.797,1041.34 866.297,1039.17 869.5,1038C 879.657,1034.83 889.657,1032 899.5,1029.5 Z"/></g>
<g><path style="opacity:1" fill="#df6162" d="M 925.5,1028.5 C 928.807,1028.06 931.807,1028.73 934.5,1030.5C 935.462,1032.88 934.462,1033.88 931.5,1033.5C 931.5,1037.5 931.5,1041.5 931.5,1045.5C 931.672,1046.49 931.338,1047.16 930.5,1047.5C 930.666,1043.49 930.499,1039.49 930,1035.5C 928.442,1036.35 927.442,1035.68 927,1033.5C 926.826,1040.63 925.993,1047.63 924.5,1054.5C 928.167,1054.5 931.833,1054.5 935.5,1054.5C 938.167,1054.5 940.833,1054.5 943.5,1054.5C 943.5,1054.83 943.5,1055.17 943.5,1055.5C 936.087,1056.13 929.087,1055.46 922.5,1053.5C 923.15,1051.56 923.483,1049.56 923.5,1047.5C 924.222,1047.08 924.722,1046.42 925,1045.5C 925.499,1039.84 925.666,1034.18 925.5,1028.5 Z"/></g>
<g><path style="opacity:1" fill="#d47075" d="M 925.5,1028.5 C 925.5,1028.17 925.5,1027.83 925.5,1027.5C 937.249,1028.58 948.582,1031.41 959.5,1036C 960.71,1037.04 961.71,1038.21 962.5,1039.5C 956.169,1036.39 949.502,1034.06 942.5,1032.5C 940.772,1032.59 939.106,1032.92 937.5,1033.5C 936.182,1036.5 935.182,1039.5 934.5,1042.5C 934.813,1039.75 934.48,1037.09 933.5,1034.5C 932.833,1038.31 932.166,1041.98 931.5,1045.5C 931.5,1041.5 931.5,1037.5 931.5,1033.5C 934.462,1033.88 935.462,1032.88 934.5,1030.5C 931.807,1028.73 928.807,1028.06 925.5,1028.5 Z"/></g>
<g><path style="opacity:1" fill="#f8f8f8" d="M 919.5,1026.5 C 921.167,1026.5 922.833,1026.5 924.5,1026.5C 924.674,1033.54 924.341,1040.54 923.5,1047.5C 923.483,1049.56 923.15,1051.56 922.5,1053.5C 921.662,1053.84 921.328,1054.51 921.5,1055.5C 919.738,1055.64 918.071,1055.31 916.5,1054.5C 913.433,1052.54 910.599,1050.2 908,1047.5C 904.99,1042.82 904.823,1038.15 907.5,1033.5C 910.271,1029.11 914.271,1026.78 919.5,1026.5 Z"/></g>
<g><path style="opacity:1" fill="#f6bcb7" d="M 924.5,1026.5 C 925.167,1026.5 925.5,1026.83 925.5,1027.5C 925.5,1027.83 925.5,1028.17 925.5,1028.5C 925.666,1034.18 925.499,1039.84 925,1045.5C 924.722,1046.42 924.222,1047.08 923.5,1047.5C 924.341,1040.54 924.674,1033.54 924.5,1026.5 Z"/></g>
<g><path style="opacity:1" fill="#ffdcd3" d="M 934.5,1042.5 C 933.85,1044.44 933.517,1046.44 933.5,1048.5C 931.804,1050.13 930.804,1049.8 930.5,1047.5C 931.338,1047.16 931.672,1046.49 931.5,1045.5C 932.166,1041.98 932.833,1038.31 933.5,1034.5C 934.48,1037.09 934.813,1039.75 934.5,1042.5 Z"/></g>
<g><path style="opacity:1" fill="#e96467" d="M 962.5,1039.5 C 963.496,1039.41 964.329,1039.75 965,1040.5C 965.497,1042.81 965.663,1045.14 965.5,1047.5C 965.5,1047.83 965.5,1048.17 965.5,1048.5C 963.809,1049.86 962.142,1051.2 960.5,1052.5C 959.5,1052.5 958.5,1052.5 957.5,1052.5C 958.765,1051.52 960.099,1050.52 961.5,1049.5C 959.207,1047.77 956.707,1046.44 954,1045.5C 952.98,1046.89 952.147,1048.39 951.5,1050C 949.934,1050.76 948.601,1050.6 947.5,1049.5C 946.539,1047.74 946.205,1045.74 946.5,1043.5C 945.5,1043.5 944.5,1043.5 943.5,1043.5C 943.852,1040.93 943.352,1038.59 942,1036.5C 941.817,1039.36 941.317,1042.03 940.5,1044.5C 940.664,1041.81 940.497,1039.15 940,1036.5C 939.667,1037.83 939.333,1039.17 939,1040.5C 938.667,1039.83 938.333,1039.17 938,1038.5C 936.768,1042.06 935.268,1045.39 933.5,1048.5C 933.517,1046.44 933.85,1044.44 934.5,1042.5C 935.182,1039.5 936.182,1036.5 937.5,1033.5C 939.106,1032.92 940.772,1032.59 942.5,1032.5C 949.502,1034.06 956.169,1036.39 962.5,1039.5 Z"/></g>
<g><path style="opacity:1" fill="#fed9d8" d="M 947.5,1049.5 C 948.774,1045.94 949.774,1042.27 950.5,1038.5C 951.711,1041.88 951.544,1045.21 950,1048.5C 949.329,1049.25 948.496,1049.59 947.5,1049.5 Z"/></g>
<g><path style="opacity:1" fill="#fedddf" d="M 943.5,1043.5 C 944.109,1046.88 942.776,1048.88 939.5,1049.5C 939.629,1047.78 939.962,1046.12 940.5,1044.5C 941.317,1042.03 941.817,1039.36 942,1036.5C 943.352,1038.59 943.852,1040.93 943.5,1043.5 Z"/></g>
<g><path style="opacity:1" fill="#e64f52" d="M 943.5,1043.5 C 944.5,1043.5 945.5,1043.5 946.5,1043.5C 946.205,1045.74 946.539,1047.74 947.5,1049.5C 948.601,1050.6 949.934,1050.76 951.5,1050C 952.147,1048.39 952.98,1046.89 954,1045.5C 956.707,1046.44 959.207,1047.77 961.5,1049.5C 960.099,1050.52 958.765,1051.52 957.5,1052.5C 957.167,1052.5 956.833,1052.5 956.5,1052.5C 952.127,1052.98 947.794,1053.65 943.5,1054.5C 940.833,1054.5 938.167,1054.5 935.5,1054.5C 937.265,1053.54 939.265,1053.21 941.5,1053.5C 941.473,1051.8 940.806,1050.47 939.5,1049.5C 942.776,1048.88 944.109,1046.88 943.5,1043.5 Z"/></g>
<g><path style="opacity:1" fill="#ec4847" d="M 930.5,1047.5 C 930.804,1049.8 931.804,1050.13 933.5,1048.5C 935.268,1045.39 936.768,1042.06 938,1038.5C 938.333,1039.17 938.667,1039.83 939,1040.5C 939.333,1039.17 939.667,1037.83 940,1036.5C 940.497,1039.15 940.664,1041.81 940.5,1044.5C 939.962,1046.12 939.629,1047.78 939.5,1049.5C 940.806,1050.47 941.473,1051.8 941.5,1053.5C 939.265,1053.21 937.265,1053.54 935.5,1054.5C 931.833,1054.5 928.167,1054.5 924.5,1054.5C 925.993,1047.63 926.826,1040.63 927,1033.5C 927.442,1035.68 928.442,1036.35 930,1035.5C 930.499,1039.49 930.666,1043.49 930.5,1047.5 Z"/></g>
</svg>
