<svg xmlns="http://www.w3.org/2000/svg" xmlns:xlink="http://www.w3.org/1999/xlink" preserveAspectRatio="xMidYMid meet" version="1.0" viewBox="1.0 1.0 510.0 510.0" zoomAndPan="magnify" style="fill: rgb(0, 0, 0);" original_string_length="4026"><g><g><g id="__id131_sfkswyw0nw"><path d="M180.26,41v40.87c-16.35,4.1-30.88,10.19-44.33,17.97l-28.91-28.92l-66.1,66.1 l28.92,28.91c-7.78,13.45-13.87,27.98-17.97,43.33H11v93.48h40.87c4.1,15.35,10.19,29.88,17.97,43.33l-28.92,28.91l66.1,66.1 l28.91-28.92c13.45,7.78,27.98,13.87,44.33,17.97V471h55.09v-60l8.65-7.667l-8.65-7.653L166.667,256l68.683-139.68L244,99.333 L235.35,91V41H180.26z" style="fill: rgb(50, 57, 63);"/></g><g id="__id132_sfkswyw0nw"><path d="M235.35,116.46l55.983,128.347L235.35,395.82c-1.75,0.21-6.21,0.32-9.35,0.32 c-77.32,0-140-62.68-140-140s62.68-140,140-140C229.14,116.14,233.6,116.25,235.35,116.46z" style="fill: rgb(105, 124, 132);"/></g><g id="__id133_sfkswyw0nw"><path d="M235.35,91c0,13.282,0,308.286,0,320c22.352,0,163.543,0,185.65,0 c0-38.315,0-282.407,0-320C415.193,91,239.406,91,235.35,91z" style="fill: rgb(33, 174, 192);"/></g><g id="__id134_sfkswyw0nw"><path d="M308.175,196.31c-23.435,0-42.5,19.065-42.5,42.5V296c0,5.522,4.478,10,10,10s10-4.478,10-10v-25h45v25 c0,5.522,4.478,10,10,10s10-4.478,10-10v-57.19C350.675,215.324,331.664,196.31,308.175,196.31z M285.675,251v-12.19 c0-12.407,10.094-22.5,22.5-22.5c12.432,0,22.5,10.066,22.5,22.5V251H285.675z" style="fill: inherit;"/></g><g id="__id135_sfkswyw0nw"><path d="M380.675,196c-5.522,0-10,4.477-10,10v90c0,5.522,4.478,10,10,10s10-4.478,10-10v-90 C390.675,200.477,386.198,196,380.675,196z" style="fill: inherit;"/></g><g id="__id136_sfkswyw0nw"><path d="M501,241h-70c0-6.076,0-14.051,0-20h50c5.522,0,10-4.477,10-10v-25c0-5.523-4.478-10-10-10 s-10,4.477-10,10v15h-40V91c0-5.523-4.478-10-10-10h-30V41h15c5.522,0,10-4.477,10-10s-4.478-10-10-10h-25 c-5.522,0-10,4.477-10,10v50h-20V11c0-5.523-4.478-10-10-10s-10,4.477-10,10v70h-20V31c0-5.523-4.478-10-10-10h-25 c-5.522,0-10,4.477-10,10s4.478,10,10,10h15v40h-45.65V41c0-5.523-4.478-10-10-10h-55.09c-5.522,0-10,4.477-10,10v33.235 c-11.338,3.352-22.097,7.717-32.573,13.217L114.092,63.85c-3.905-3.907-10.238-3.905-14.144-0.001l-66.1,66.101 c-3.905,3.906-3.903,10.238,0.001,14.143l23.603,23.595c-5.32,10.126-9.705,20.697-13.097,31.573H11c-5.522,0-10,4.477-10,10 v93.48c0,5.522,4.478,10,10,10h33.355c3.392,10.875,7.776,21.446,13.097,31.573L33.85,367.908 c-3.904,3.904-3.905,10.238-0.001,14.144l66.1,66.1c3.905,3.903,10.239,3.904,14.144-0.001l23.595-23.603 c10.476,5.5,21.235,9.866,32.573,13.217V471c0,5.522,4.478,10,10,10h55.09c5.522,0,10-4.478,10-10v-50H291v40h-15 c-5.522,0-10,4.478-10,10s4.478,10,10,10h25c5.522,0,10-4.478,10-10v-50h20v80c0,5.522,4.478,10,10,10s10-4.478,10-10v-80h20v50 c0,5.522,4.478,10,10,10h25c5.522,0,10-4.478,10-10s-4.478-10-10-10h-15v-40h30c5.522,0,10-4.478,10-10c0-10.455,0-93.791,0-110 h40v15c0,5.522,4.478,10,10,10s10-4.478,10-10v-25c0-5.522-4.478-10-10-10h-50c0-6.076,0-14.051,0-20h70c5.522,0,10-4.478,10-10 C511,245.477,506.522,241,501,241z M225.35,385.992C153.966,385.64,96,327.465,96,256c0-71.465,57.966-129.64,129.35-129.992 V385.992z M225.35,106.008C142.938,106.361,76,173.507,76,256c0,82.492,66.938,149.639,149.35,149.992c0,13.822,0,48.079,0,55.008 h-35.09v-30.87c0-4.586-3.119-8.584-7.567-9.7c-14.841-3.721-28.499-9.257-41.756-16.926c-3.92-2.266-8.875-1.617-12.079,1.586 l-21.839,21.847l-51.955-51.955l21.847-21.839c3.203-3.202,3.854-8.158,1.586-12.079c-7.445-12.872-13.153-26.634-16.965-40.903 c-1.168-4.376-5.132-7.42-9.661-7.42H21v-73.48h30.87c4.529,0,8.493-3.044,9.661-7.419c3.812-14.27,9.52-28.032,16.965-40.903 c2.268-3.921,1.617-8.877-1.586-12.08l-21.847-21.839l51.955-51.956l21.839,21.846c3.203,3.204,8.158,3.854,12.079,1.586 c13.257-7.668,26.916-13.205,41.756-16.926c4.448-1.116,7.567-5.114,7.567-9.7V51h35.09 C225.35,63.867,225.35,93.093,225.35,106.008z M411,401H245.35V101H411V401z" style="fill: inherit;"/></g></g></g></svg>