<?xml version="1.0" encoding="UTF-8"?><svg xmlns="http://www.w3.org/2000/svg" xmlns:xlink="http://www.w3.org/1999/xlink" height="265.2" preserveAspectRatio="xMidYMid meet" version="1.1" viewBox="94.9 78.8 235.4 265.2" width="235.4" zoomAndPan="magnify">
 <g id="surface1">
  <g id="change1_1"><path d="m192.34 210.42v60.83h-36.18c-0.65 0-1.3 0.27-1.76 0.73-0.47 0.47-0.73 1.11-0.73 1.77v58.33c0 1.38 1.12 2.5 2.49 2.5 1.39 0 2.5-1.12 2.5-2.5v-55.83h36.18c0.66 0 1.3-0.27 1.77-0.73 0.46-0.47 0.73-1.11 0.73-1.77v-63.33c0-1.38-1.12-2.5-2.5-2.5s-2.5 1.12-2.5 2.5" fill="#040505"/></g>
  <g id="change1_2"><path d="m211.68 210.42v84.29h-16.84c-0.66 0-1.3 0.27-1.77 0.73-0.46 0.47-0.73 1.11-0.73 1.77v21.56c0 1.38 1.12 2.5 2.5 2.5s2.5-1.12 2.5-2.5v-19.06h16.84c0.66 0 1.3-0.26 1.77-0.73 0.46-0.47 0.73-1.11 0.73-1.77v-86.79c0-1.38-1.12-2.5-2.5-2.5s-2.5 1.12-2.5 2.5" fill="#040505"/></g>
  <g id="change1_3"><path d="m131.73 281.99v-42.83h36.18c0.65 0 1.3-0.27 1.76-0.73 0.47-0.47 0.74-1.11 0.74-1.77v-26.24c0-1.38-1.12-2.5-2.5-2.5-1.39 0-2.5 1.12-2.5 2.5v23.74h-36.18c-0.66 0-1.3 0.27-1.77 0.73-0.46 0.47-0.73 1.11-0.73 1.77v45.33c0 1.39 1.12 2.5 2.5 2.5s2.5-1.11 2.5-2.5" fill="#040505"/></g>
  <g id="change1_4"><path d="m227.86 210.42v63.33c0 0.66 0.26 1.3 0.73 1.77 0.46 0.46 1.11 0.73 1.77 0.73h36.18v55.83c0 1.38 1.11 2.5 2.5 2.5 1.37 0 2.5-1.12 2.5-2.5v-58.33c0-0.66-0.27-1.3-0.74-1.77-0.46-0.46-1.11-0.73-1.76-0.73h-36.18v-60.83c0-1.38-1.12-2.5-2.5-2.5s-2.5 1.12-2.5 2.5" fill="#040505"/></g>
  <g id="change1_5"><path d="m298.47 281.99v-45.33c0-0.66-0.27-1.3-0.73-1.77-0.47-0.46-1.11-0.73-1.77-0.73h-36.17v-23.74c0-1.38-1.12-2.5-2.5-2.5-1.39 0-2.5 1.12-2.5 2.5v26.24c0 0.66 0.26 1.3 0.73 1.77 0.46 0.46 1.11 0.73 1.77 0.73h36.17v42.83c0 1.39 1.12 2.5 2.5 2.5s2.5-1.11 2.5-2.5" fill="#040505"/></g>
  <g id="change2_1"><path d="m257.7 320.75c0-6.26 5.07-11.34 11.34-11.34 6.25 0 11.33 5.08 11.33 11.34s-5.08 11.33-11.33 11.33c-6.27 0-11.34-5.07-11.34-11.33" fill="#e1b92f"/></g>
  <g id="change1_6"><path d="m257.7 320.75h2.5c0-2.45 0.98-4.64 2.59-6.25 1.6-1.6 3.8-2.59 6.25-2.59 2.44 0 4.64 0.99 6.24 2.59 1.6 1.61 2.59 3.8 2.59 6.25s-0.99 4.64-2.59 6.25c-1.6 1.6-3.8 2.58-6.24 2.58-2.45 0-4.65-0.98-6.25-2.58-1.61-1.61-2.59-3.8-2.59-6.25h-5c0 3.81 1.55 7.29 4.05 9.78 2.5 2.5 5.97 4.06 9.79 4.05 3.81 0.01 7.28-1.55 9.78-4.05 2.5-2.49 4.05-5.97 4.05-9.78 0-7.64-6.19-13.83-13.83-13.84-7.65 0.01-13.84 6.2-13.84 13.84h2.5" fill="#040505"/></g>
  <g id="change2_2"><path d="m183.51 320.75c0-6.26 5.07-11.34 11.33-11.34s11.34 5.08 11.34 11.34-5.08 11.33-11.34 11.33-11.33-5.07-11.33-11.33" fill="#e1b92f"/></g>
  <g id="change1_7"><path d="m183.51 320.75h2.5c0-2.45 0.98-4.64 2.59-6.25 1.6-1.6 3.79-2.59 6.24-2.59s4.64 0.99 6.25 2.59c1.6 1.61 2.59 3.8 2.59 6.25s-0.99 4.64-2.59 6.25c-1.61 1.6-3.8 2.58-6.25 2.58s-4.64-0.98-6.24-2.58c-1.61-1.61-2.59-3.8-2.59-6.25h-5c0 3.81 1.55 7.29 4.05 9.78 2.49 2.5 5.97 4.06 9.78 4.05 3.82 0.01 7.29-1.55 9.78-4.05 2.5-2.49 4.06-5.97 4.06-9.78 0-7.64-6.2-13.83-13.84-13.84-7.64 0.01-13.83 6.2-13.83 13.84h2.5" fill="#040505"/></g>
  <g id="change2_3"><path d="m144.83 330.1c0-6.26 5.08-11.33 11.34-11.33s11.33 5.07 11.33 11.33-5.07 11.34-11.33 11.34-11.34-5.08-11.34-11.34" fill="#e1b92f"/></g>
  <g id="change1_8"><path d="m144.83 330.1h2.5c0.01-2.44 0.99-4.64 2.59-6.24 1.61-1.61 3.8-2.59 6.25-2.59 2.44 0 4.64 0.98 6.24 2.59 1.61 1.6 2.59 3.8 2.59 6.24 0 2.45-0.98 4.64-2.59 6.25-1.6 1.6-3.8 2.58-6.24 2.59-2.45-0.01-4.64-0.99-6.25-2.59-1.6-1.61-2.58-3.8-2.59-6.25h-5c0.01 7.64 6.2 13.83 13.84 13.84 7.64-0.01 13.83-6.2 13.83-13.84s-6.19-13.83-13.83-13.83-13.83 6.19-13.84 13.83h2.5" fill="#040505"/></g>
  <g id="change2_4"><path d="m117.89 276.42c0-6.26 5.08-11.33 11.34-11.33s11.33 5.07 11.33 11.33-5.07 11.33-11.33 11.33-11.34-5.07-11.34-11.33" fill="#e1b92f"/></g>
  <g id="change1_9"><path d="m117.89 276.42h2.5c0-2.45 0.99-4.64 2.59-6.25 1.61-1.6 3.8-2.58 6.25-2.58s4.64 0.98 6.25 2.58c1.6 1.61 2.58 3.8 2.58 6.25 0 2.44-0.98 4.64-2.58 6.24-1.61 1.61-3.8 2.59-6.25 2.59s-4.64-0.98-6.25-2.59c-1.6-1.6-2.59-3.8-2.59-6.24h-5c0 7.64 6.2 13.83 13.84 13.83s13.83-6.19 13.83-13.83-6.19-13.83-13.83-13.83-13.83 6.19-13.84 13.83h2.5" fill="#040505"/></g>
  <g id="change2_5"><path d="m284.64 282.8c0-6.26 5.07-11.34 11.33-11.34s11.33 5.08 11.33 11.34-5.07 11.33-11.33 11.33-11.33-5.07-11.33-11.33" fill="#e1b92f"/></g>
  <g id="change1_10"><path d="m284.64 282.8h2.5c0-2.45 0.98-4.64 2.59-6.25 1.6-1.6 3.79-2.58 6.24-2.59 2.45 0.01 4.64 0.99 6.25 2.59 1.6 1.61 2.58 3.8 2.58 6.25s-0.98 4.64-2.58 6.25c-1.61 1.6-3.8 2.58-6.25 2.58s-4.64-0.98-6.24-2.58c-1.61-1.61-2.59-3.8-2.59-6.25h-5c0 7.64 6.19 13.83 13.83 13.83s13.83-6.19 13.83-13.83-6.19-13.83-13.83-13.84c-7.64 0.01-13.83 6.2-13.83 13.84h2.5" fill="#040505"/></g>
  <g id="change3_1"><path d="m144.79 217.66c-26.14 0-47.403-21.27-47.403-47.4 0-23.72 17.963-43.97 41.263-47.01 2.56-23.707 22.74-41.984 46.83-41.984 12.45 0 24.45 4.98 33.24 13.738 7.88-5.449 17.07-8.316 26.73-8.316 25.97 0 47.1 21.132 47.1 47.102 0 0.33 0 0.67-0.01 1.01 20.27 3.1 35.27 20.4 35.27 41.18 0 22.98-18.69 41.68-41.67 41.68h-141.35" fill="#64cbd6"/></g>
  <g id="change1_11"><path d="m185.48 78.766c-24.71 0-45.51 18.265-49.07 42.294-10.82 1.83-20.75 7.19-28.29 15.35-8.53 9.24-13.233 21.26-13.233 33.85 0 27.51 22.383 49.9 49.903 49.9h141.35c24.36 0 44.17-19.82 44.17-44.18 0-11.05-4.1-21.62-11.55-29.78-6.34-6.94-14.63-11.63-23.72-13.49-0.58-26.85-22.6-48.522-49.59-48.522-9.49 0-18.54 2.624-26.44 7.628-9.11-8.339-21.1-13.05-33.53-13.05m0 5c13.05 0 24.79 5.605 32.95 14.543 7.5-5.723 16.86-9.121 27.02-9.121 24.63 0 44.6 19.972 44.6 44.602 0 1.08-0.04 2.14-0.11 3.2 19.85 1.91 35.37 18.64 35.37 38.99 0 21.64-17.54 39.18-39.17 39.18h-141.35c-24.8 0-44.903-20.1-44.903-44.9 0-23.51 18.073-42.8 41.073-44.74 1.48-23.31 20.84-41.754 44.52-41.754" fill="#040505"/></g>
  <g id="change4_1"><path d="m145.91 107.77c7.19-13.79 21.38-23.356 37.86-23.973 0.03 0 0.07-0.004 0.1-0.004s0.07-0.004 0.1-0.004c0.04 0 0.07-0.004 0.1-0.004h0.05 0.05c0-0.004 0-0.004 0.01-0.004h0.04c0.03 0 0.07 0 0.1-0.004h0.1 0.01c0.03 0 0.05-0.004 0.09-0.004h0.01 0.04 0.05 0.01 0.04 0.01c0.01-0.003 0.02-0.003 0.04-0.003h0.01 0.04 0.01 0.04 0.05 0.01 0.04 0.01 0.04 0.01c0.01-0.004 0.03-0.004 0.04-0.004h0.05 0.01 0.04 0.01 0.04 0.01 0.04 0.01 0.04 0.01 0.04 0.01 0.05 0.04 0.01 0.05 0.04 0.01 0.02 0.02 0.02 0.02 0.01 0.02 0.02 0.02 0.02 0.02 0.02 0.02 0.01 0.02 0.02 0.02 0.02 0.02 0.02 0.02 0.01 0.03 0.01c0.01 0 0.02 0.004 0.02 0.004h0.02 0.02 0.01 0.03 0.01 0.02 0.02 0.02 0.01 0.03c12.21 0.187 23.22 5.277 31.17 13.386-5.15 1.192-9.89 3.454-13.96 6.564-6.72-7.361-16.39-11.978-27.14-11.978-12.6 0-23.72 6.356-30.33 16.028" fill="#4a959f"/></g>
  <g id="change5_1"><path d="m183.77 83.797m0.1-0.004m0.1-0.004m0.1-0.004m0.05 0m0.05 0c0-0.004 0-0.004 0.01-0.004-0.01 0-0.01 0-0.01 0.004m0.05-0.004m0.1-0.004m0.1 0h0.01-0.01m0.1-0.004h0.01-0.01m0.05 0m0.05 0h0.01-0.01m0.05 0h0.01-0.01m0.05-0.003h0.01-0.01m0.05 0h0.01-0.01m1.4 0m-0.03 0h-0.01 0.01m-1.32 0m1.29 0h-0.02 0.02m-1.24 0h0.01-0.01m1.2 0h-0.01 0.01m-0.04 0h-0.01 0.01m-1.11 0h0.01-0.01m1.08 0h-0.02 0.02m-1.03 0h0.01-0.01m0.99-0.004h-0.01 0.01m-0.94 0m0.9 0h-0.01 0.01m-0.03 0h-0.02 0.02m-0.82 0h0.01-0.01m0.78 0h-0.02 0.02m-0.73 0h0.01-0.01m0.69 0h-0.02 0.02m-0.64 0h0.01-0.01m0.6 0h-0.01 0.01m-0.03 0h-0.02 0.02m-0.52 0h0.01-0.01m0.48 0h-0.02 0.02m-0.43 0h0.01-0.01m0.39 0h-0.02 0.02m-0.34 0h0.01-0.01m0.3 0h-0.01 0.01m-0.03 0h-0.02 0.02m-0.21 0m0.17 0h-0.02 0.02m-0.13 0h0.01-0.01m0.1 0h-0.04 0.04" fill="#030404"/></g>
  <g id="change4_2"><path d="m286.14 215.16h-141.35c-24.8 0-44.903-20.1-44.903-44.9v-0.04-0.01-0.02-0.02-0.01-0.03-0.01-0.02-0.01-0.02-0.02-0.01-0.02-0.02-0.02-0.01-0.02-0.02-0.01-0.02-0.02-0.02s0.004 0 0.004-0.01v-0.02-0.01-0.02-0.02-0.02-0.01-0.02-0.02-0.01-0.02-0.02-0.02-0.01-0.02-0.02-0.01-0.02-0.02l0.004-0.01v-0.02-0.02-0.01-0.02-0.02-0.01-0.02-0.02-0.01-0.02-0.02s0-0.01 0.003-0.02v-0.02-0.01-0.02-0.02-0.01-0.02-0.01-0.03-0.01-0.02l0.004-0.01v-0.02-0.01-0.03-0.01-0.02-0.01-0.02-0.02c0.004 0 0.004-0.01 0.004-0.02v-0.01-0.02-0.01-0.03-0.01-0.02-0.01c0-0.01 0-0.01 0.004-0.02v-0.01-0.03-0.01-0.02-0.03-0.01c0.004-0.02 0.004-0.04 0.004-0.06 0.008-0.2 0.016-0.4 0.024-0.61 0.003-0.01 0.003-0.02 0.003-0.03v-0.03c0-0.01 0-0.02 0.004-0.03v-0.03-0.01-0.03h0.004v-0.03c0-0.03 0.004-0.05 0.004-0.07v-0.03-0.01c0-0.01 0.004-0.02 0.004-0.03 1.203-21.9 18.123-39.62 39.673-42.09-0.01 0.16-0.03 0.32-0.04 0.47-18.95 1.61-33.83 17.49-33.83 36.85 0 20.42 16.55 36.98 36.98 36.98h116.4c17.82 0 32.26-14.44 32.26-32.26 0-16.76-12.78-30.54-29.13-32.12 0.06-0.87 0.09-1.75 0.09-2.63 0-20.29-16.44-36.729-36.73-36.729-1.57 0-3.12 0.098-4.65 0.289 6.93-4.555 15.2-7.234 24.09-7.309h0.01 0.04s0.01-0.003 0.02-0.003h0.03 0.03 0.03 0.02 0.03 0.03 0.03 0.03 0.02 0.06c24.63 0 44.6 19.972 44.6 44.602 0 1.08-0.04 2.14-0.11 3.2 19.85 1.91 35.37 18.64 35.37 38.99 0 21.64-17.54 39.18-39.17 39.18" fill="#4a959f"/></g>
  <g id="change5_2"><path d="m286.14 215.16h-141.35c-24.8 0-44.903-20.1-44.903-44.9 0 24.8 20.103 44.9 44.903 44.9h141.35c21.63 0 39.17-17.54 39.17-39.18 0 21.64-17.54 39.18-39.17 39.18m-186.25-44.9v-0.04 0.04m0-0.05v-0.02 0.02m0-0.04v-0.01 0.01m0-0.04v-0.01 0.01m0-0.03v-0.01 0.01m0-0.03v-0.02 0.02m0-0.03v-0.02 0.02m0-0.04v-0.02 0.02m0-0.03v-0.02 0.02m0-0.04v-0.01 0.01m0-0.03v-0.02 0.02m0-0.04s0.004 0 0.004-0.01c0 0.01-0.004 0.01-0.004 0.01m0.004-0.03v-0.01 0.01m0-0.03v-0.02 0.02m0-0.04v-0.01 0.01m0-0.03v-0.02 0.02m0-0.03v-0.02 0.02m0-0.04v-0.02 0.02m0-0.03v-0.02 0.02m0-0.04v-0.01 0.01m0-0.03v-0.02 0.02m0.004-0.03v-0.02 0.02m0-0.04v-0.01 0.01m0-0.03v-0.02 0.02m0-0.03v-0.02 0.02m0-0.04v-0.01 0.01m0-0.03v-0.02 0.02m0.003-0.04v-0.02 0.02m0-0.03v-0.02 0.02m0-0.04v-0.01 0.01m0-0.03v-0.01 0.01m0-0.04v-0.01 0.01m0-0.03l0.004-0.01-0.004 0.01m0.004-0.03v-0.01 0.01m0-0.04v-0.01 0.01m0-0.03v-0.01 0.01m0-0.03v-0.02 0.02m0.004-0.04v-0.01 0.01m0-0.03v-0.01 0.01m0-0.04v-0.01 0.01m0-0.03v-0.01 0.01m0.004-0.03v-0.01 0.01m0-0.04v-0.01 0.01m0-0.03m0-0.03v-0.01 0.01m0.004-0.07m0.024-0.61m0.003-0.03m0-0.03m0.004-0.03m0-0.03v-0.01 0.01m0-0.04h0.004-0.004m0.004-0.03m0.004-0.07m0-0.03v-0.01 0.01m0.004-0.04m189.98-30.75c0.07-1.06 0.11-2.12 0.11-3.2 0 1.08-0.04 2.14-0.11 3.2m-44.87-47.799h0.01-0.01m0.05 0s0.01-0.003 0.02-0.003c-0.01 0-0.02 0.003-0.02 0.003m0.05-0.003h0.03-0.03m0.06 0h0.02-0.02m0.05 0h0.03-0.03m0.06 0h0.03-0.03m0.05 0h0.06-0.06" fill="#030404"/></g>
  <g id="change6_1"><path d="m143.23 130.54c-19.52 0-35.34 15.82-35.34 35.35 0 1.38 1.12 2.5 2.5 2.5s2.5-1.12 2.5-2.5c0-8.39 3.39-15.96 8.89-21.46s13.07-8.89 21.45-8.89c1.39 0 2.5-1.12 2.5-2.5s-1.11-2.5-2.5-2.5" fill="#fff"/></g>
  <g id="change6_2"><path d="m186.55 99.23c-2.96-0.761-5.93-1.128-8.85-1.128-7.88 0-15.4 2.648-21.47 7.288-6.07 4.63-10.69 11.28-12.74 19.24-0.35 1.34 0.46 2.71 1.8 3.05 1.33 0.34 2.69-0.46 3.04-1.8 1.77-6.85 5.72-12.53 10.94-16.52 5.21-3.98 11.68-6.26 18.43-6.26 2.5 0 5.05 0.31 7.6 0.97 1.34 0.35 2.7-0.46 3.04-1.79 0.35-1.34-0.46-2.706-1.79-3.05" fill="#fff"/></g>
  <g id="change1_12"><path d="m193.68 153.91c0 16.28 13.2 29.47 29.48 29.48 1.38 0 2.5-1.12 2.5-2.5 0-1.39-1.12-2.5-2.5-2.5-6.77-0.01-12.87-2.74-17.31-7.18-4.44-4.43-7.17-10.53-7.17-17.3 0-1.38-1.12-2.5-2.5-2.5s-2.5 1.12-2.5 2.5" fill="#040505"/></g>
  <g id="change1_13"><path d="m203.36 169.48c-6.32-3.1-13.04-4.59-19.65-4.59-8.23 0.01-16.3 2.29-23.28 6.55s-12.89 10.49-16.76 18.37c-0.61 1.24-0.1 2.74 1.14 3.35s2.73 0.1 3.34-1.14c3.45-7.01 8.68-12.53 14.88-16.31s13.37-5.82 20.68-5.82c5.86 0.01 11.81 1.31 17.44 4.08 1.24 0.61 2.74 0.1 3.35-1.14s0.1-2.73-1.14-3.35" fill="#040505"/></g>
  <g id="change1_14"><path d="m251.52 111.16c-8.7-8.69-20.11-13.058-31.5-13.058-11.42 0-22.86 4.348-31.56 13.058-0.98 0.98-0.98 2.56 0 3.54 0.97 0.98 2.56 0.98 3.53 0 7.74-7.74 17.87-11.59 28.03-11.6 10.12 0.01 20.23 3.87 27.96 11.6 0.97 0.98 2.56 0.98 3.54 0 0.97-0.98 0.97-2.56 0-3.54" fill="#040505"/></g>
  <g id="change1_15"><path d="m322.73 191.58c0-15.11-12.24-27.35-27.35-27.35s-27.35 12.24-27.35 27.35c0 1.38 1.12 2.5 2.5 2.5s2.5-1.12 2.5-2.5c0-6.18 2.5-11.75 6.55-15.8s9.62-6.55 15.8-6.55 11.75 2.5 15.8 6.55 6.55 9.62 6.55 15.8c0 1.38 1.12 2.5 2.5 2.5s2.5-1.12 2.5-2.5" fill="#040505"/></g>
 </g>
</svg>