<svg xmlns="http://www.w3.org/2000/svg" xmlns:xlink="http://www.w3.org/1999/xlink" preserveAspectRatio="xMidYMid meet" version="1.0" viewBox="1.0 1.0 510.0 510.0" zoomAndPan="magnify" style="fill: rgb(0, 0, 0);" original_string_length="4049"><g><g><g id="__id1048_sfkswyw0nw"><path d="M471,441c16.57,0,30,13.43,30,30c0,16.56-13.44,30-30,30H321 c-16.57,0-30-13.43-30-30c0-16.56,13.44-30,30-30C335.485,441,455.114,441,471,441z" style="fill: rgb(194, 188, 224);"/></g><g id="__id1049_sfkswyw0nw"><path d="M166,261c-41.42,0-75-33.59-75-75c0-37.17,27.04-68,62.52-73.95 C154.29,56.11,199.87,11,256,11s101.71,45.11,102.48,101.05C394.18,118.03,421,149.08,421,186c0,41.42-33.58,75-75,75 C326.963,261,185.166,261,166,261z M211,211c13.81,0,25-11.19,25-25s-11.19-25-25-25s-25,11.19-25,25S197.19,211,211,211z M301,211c13.81,0,25-11.19,25-25s-11.19-25-25-25s-25,11.19-25,25S287.19,211,301,211z" style="fill: rgb(56, 182, 255);"/></g><g id="__id1050_sfkswyw0nw"><path d="M361,351c0,16.57-13.43,30-30,30H181c-16.57,0-30-13.43-30-30 c0-6.995,0-13.005,0-20c0-16.57,13.43-30,30-30h150c16.57,0,30,13.43,30,30C361,337.995,361,344.005,361,351z" style="fill: rgb(194, 188, 224);"/></g><g id="__id1051_sfkswyw0nw"><circle cx="301" cy="186" r="25" style="fill: rgb(126, 217, 87);"/></g><g id="__id1052_sfkswyw0nw"><circle cx="211" cy="186" r="25" style="fill: rgb(126, 217, 87);"/></g><g id="__id1053_sfkswyw0nw"><path d="M191,441c16.57,0,30,13.43,30,30c0,16.56-13.44,30-30,30H41 c-16.57,0-30-13.43-30-30c0-16.56,13.44-30,30-30C56.879,441,176.527,441,191,441z" style="fill: rgb(194, 188, 224);"/></g><g id="__id1054_sfkswyw0nw"><path d="M361,351c0,16.57-13.43,30-30,30H181c-16.57,0-30-13.43-30-30 c0-6.995,0-13.005,0-20c0-16.57,13.43-30,30-30h150c16.57,0,30,13.43,30,30C361,337.995,361,344.005,361,351z" style="fill: rgb(255, 222, 89);"/></g><g id="__id1055_sfkswyw0nw"><path d="M166,271h180c46.869,0,85-38.131,85-85c0-38.59-26.013-72.153-62.909-82.079 C363.267,46.414,315.102,1,256,1c-59.104,0-107.26,45.413-112.09,102.909C107.009,113.74,81,147.064,81,186 C81,232.869,119.131,271,166,271z M211,201c-8.271,0-15-6.729-15-15s6.729-15,15-15s15,6.729,15,15S219.271,201,211,201z M301,201 c-8.271,0-15-6.729-15-15s6.729-15,15-15s15,6.729,15,15S309.271,201,301,201z M155.174,121.912 c4.766-0.799,8.278-4.893,8.345-9.725C164.211,61.906,205.698,21,256,21s91.789,40.906,92.481,91.188 c0.066,4.833,3.58,8.927,8.347,9.725C388.218,127.171,411,154.123,411,186c0,35.841-29.159,65-65,65h-35v-31.463 c14.44-4.314,25-17.712,25-33.537c0-19.299-15.701-35-35-35s-35,15.701-35,35c0,15.824,10.56,29.223,25,33.537V251h-70v-31.463 c14.44-4.314,25-17.712,25-33.537c0-19.299-15.701-35-35-35s-35,15.701-35,35c0,15.824,10.56,29.223,25,33.537V251h-35 c-35.841,0-65-29.159-65-65C101,154.129,123.783,127.177,155.174,121.912z" style="fill: inherit;"/></g><g id="__id1056_sfkswyw0nw"><path d="M471,431h-60v-90c0-5.522-4.478-10-10-10h-30c0-22.056-17.944-40-40-40H181c-22.056,0-40,17.944-40,40 h-30c-5.522,0-10,4.478-10,10v90H41c-22.098,0-40,17.898-40,40c0,22.056,17.944,40,40,40h150c22.098,0,40-17.898,40-40 c0-22.056-17.944-40-40-40h-70v-80h20c0,22.056,17.944,40,40,40h150c22.056,0,40-17.944,40-40h20v80h-70 c-22.098,0-40,17.898-40,40c0,22.056,17.944,40,40,40h150c22.098,0,40-17.898,40-40C511,448.944,493.056,431,471,431z M211,471 c0,11.046-8.954,20-20,20H41c-11.028,0-20-8.972-20-20c0-11.046,8.954-20,20-20h150C202.028,451,211,459.972,211,471z M351,351 c0,11.028-8.972,20-20,20H181c-11.028,0-20-8.972-20-20v-20c0-11.028,8.972-20,20-20h150c11.028,0,20,8.972,20,20V351z M471,491 H321c-11.028,0-20-8.972-20-20c0-11.046,8.954-20,20-20h150c11.028,0,20,8.972,20,20C491,482.046,482.046,491,471,491z" style="fill: inherit;"/></g><g id="__id1057_sfkswyw0nw"><circle cx="196" cy="341" r="10" style="fill: inherit;"/></g><g id="__id1058_sfkswyw0nw"><circle cx="236" cy="341" r="10" style="fill: inherit;"/></g><g id="__id1059_sfkswyw0nw"><circle cx="276" cy="341" r="10" style="fill: inherit;"/></g><g id="__id1060_sfkswyw0nw"><circle cx="316" cy="341" r="10" style="fill: inherit;"/></g></g></g></svg>