<svg xmlns="http://www.w3.org/2000/svg" xmlns:xlink="http://www.w3.org/1999/xlink" preserveAspectRatio="xMidYMid meet" version="1.0" viewBox="1.0 1.0 510.0 510.0" zoomAndPan="magnify" style="fill: rgb(0, 0, 0);" original_string_length="5581"><g><g><g id="__id161_sfkswyw0nw"><circle cx="481" cy="181" r="20" style="fill: rgb(255, 116, 72);"/></g><g id="__id162_sfkswyw0nw"><circle cx="481" cy="261" r="20" style="fill: rgb(255, 116, 72);"/></g><g id="__id163_sfkswyw0nw"><circle cx="481" cy="341" r="20" style="fill: rgb(255, 116, 72);"/></g><g id="__id164_sfkswyw0nw"><path d="M381,101c-7.023,0-241.433,0-250,0c-16.57,0-30,13.43-30,30 c0,9.412,0,238.013,0,250c0,16.57,13.43,30,30,30c7.023,0,241.433,0,250,0c16.57,0,30-13.43,30-30c0-8.473,0-248.285,0-250 C411,114.43,397.57,101,381,101z" style="fill: rgb(96, 194, 200);"/></g><g id="__id165_sfkswyw0nw"><path d="M361 151L361 283.63 283.63 361 151 361 151 151z" style="fill: rgb(247, 196, 90);"/></g><g id="__id166_sfkswyw0nw"><circle cx="336" cy="31" r="20" style="fill: rgb(255, 116, 72);"/></g><g id="__id167_sfkswyw0nw"><circle cx="336" cy="481" r="20" style="fill: rgb(255, 116, 72);"/></g><g id="__id168_sfkswyw0nw"><circle cx="256" cy="31" r="20" style="fill: rgb(255, 116, 72);"/></g><g id="__id169_sfkswyw0nw"><circle cx="256" cy="481" r="20" style="fill: rgb(255, 116, 72);"/></g><g id="__id170_sfkswyw0nw"><circle cx="176" cy="31" r="20" style="fill: rgb(255, 116, 72);"/></g><g id="__id171_sfkswyw0nw"><circle cx="176" cy="481" r="20" style="fill: rgb(255, 116, 72);"/></g><g id="__id172_sfkswyw0nw"><circle cx="31" cy="181" r="20" style="fill: rgb(255, 116, 72);"/></g><g id="__id173_sfkswyw0nw"><circle cx="31" cy="261" r="20" style="fill: rgb(255, 116, 72);"/></g><g id="__id174_sfkswyw0nw"><circle cx="31" cy="341" r="20" style="fill: rgb(255, 116, 72);"/></g><g id="__id175_sfkswyw0nw"><path d="M421,271h31.72c4.128,11.639,15.243,20,28.28,20c16.542,0,30-13.458,30-30s-13.458-30-30-30 c-13.036,0-24.152,8.361-28.28,20H421v-60h31.72c4.128,11.639,15.243,20,28.28,20c16.542,0,30-13.458,30-30s-13.458-30-30-30 c-13.036,0-24.152,8.361-28.28,20H421v-40c0-22.056-17.944-40-40-40h-35V59.28c11.639-4.128,20-15.243,20-28.28 c0-16.542-13.458-30-30-30s-30,13.458-30,30c0,13.036,8.361,24.152,20,28.28V91h-60V59.28c11.639-4.128,20-15.243,20-28.28 c0-16.542-13.458-30-30-30s-30,13.458-30,30c0,13.036,8.361,24.152,20,28.28V91h-60V59.28c11.639-4.128,20-15.243,20-28.28 c0-16.542-13.458-30-30-30s-30,13.458-30,30c0,13.036,8.361,24.152,20,28.28V91h-35c-22.056,0-40,17.944-40,40v40H59.28 c-4.128-11.639-15.243-20-28.28-20c-16.542,0-30,13.458-30,30s13.458,30,30,30c13.036,0,24.152-8.361,28.28-20H91v60H59.28 c-4.128-11.639-15.243-20-28.28-20c-16.542,0-30,13.458-30,30s13.458,30,30,30c13.036,0,24.152-8.361,28.28-20H91v60H59.28 c-4.128-11.639-15.243-20-28.28-20c-16.542,0-30,13.458-30,30s13.458,30,30,30c13.036,0,24.152-8.361,28.28-20H91v30 c0,22.056,17.944,40,40,40h35v31.72c-11.639,4.128-20,15.243-20,28.28c0,16.542,13.458,30,30,30s30-13.458,30-30 c0-13.036-8.361-24.152-20-28.28V421h60v31.72c-11.639,4.128-20,15.243-20,28.28c0,16.542,13.458,30,30,30s30-13.458,30-30 c0-13.036-8.361-24.152-20-28.28V421h60v31.72c-11.639,4.128-20,15.243-20,28.28c0,16.542,13.458,30,30,30s30-13.458,30-30 c0-13.036-8.361-24.152-20-28.28V421h35c22.056,0,40-17.944,40-40v-30h31.72c4.128,11.639,15.243,20,28.28,20 c16.542,0,30-13.458,30-30s-13.458-30-30-30c-13.036,0-24.152,8.361-28.28,20H421V271z M481,251c5.514,0,10,4.486,10,10 s-4.486,10-10,10s-10-4.486-10-10S475.486,251,481,251z M481,171c5.514,0,10,4.486,10,10s-4.486,10-10,10s-10-4.486-10-10 S475.486,171,481,171z M336,21c5.514,0,10,4.486,10,10s-4.486,10-10,10s-10-4.486-10-10S330.486,21,336,21z M256,21 c5.514,0,10,4.486,10,10s-4.486,10-10,10s-10-4.486-10-10S250.486,21,256,21z M176,21c5.514,0,10,4.486,10,10s-4.486,10-10,10 s-10-4.486-10-10S170.486,21,176,21z M31,191c-5.514,0-10-4.486-10-10s4.486-10,10-10s10,4.486,10,10S36.514,191,31,191z M31,271 c-5.514,0-10-4.486-10-10s4.486-10,10-10s10,4.486,10,10S36.514,271,31,271z M31,351c-5.514,0-10-4.486-10-10s4.486-10,10-10 s10,4.486,10,10S36.514,351,31,351z M176,491c-5.514,0-10-4.486-10-10s4.486-10,10-10s10,4.486,10,10S181.514,491,176,491z M256,491c-5.514,0-10-4.486-10-10s4.486-10,10-10s10,4.486,10,10S261.514,491,256,491z M336,491c-5.514,0-10-4.486-10-10 s4.486-10,10-10s10,4.486,10,10S341.514,491,336,491z M481,331c5.514,0,10,4.486,10,10s-4.486,10-10,10s-10-4.486-10-10 S475.486,331,481,331z M401,381c0,11.028-8.972,20-20,20H131c-11.028,0-20-8.972-20-20V131c0-11.028,8.972-20,20-20h250 c11.028,0,20,8.972,20,20V381z" style="fill: inherit;"/></g><g id="__id176_sfkswyw0nw"><path d="M361,141H151c-5.522,0-10,4.478-10,10v210c0,5.522,4.478,10,10,10h132.63 c2.652,0,5.195-1.054,7.071-2.929l77.37-77.37c1.875-1.876,2.929-4.419,2.929-7.071V151C371,145.478,366.522,141,361,141z M351,279.487L279.487,351H161V161h190V279.487z" style="fill: inherit;"/></g><g id="__id177_sfkswyw0nw"><circle cx="207.33" cy="205.5" r="10" style="fill: inherit;"/></g><g id="__id178_sfkswyw0nw"><circle cx="257.33" cy="205.5" r="10" style="fill: inherit;"/></g><g id="__id179_sfkswyw0nw"><circle cx="307.33" cy="205.5" r="10" style="fill: inherit;"/></g><g id="__id180_sfkswyw0nw"><circle cx="207.33" cy="255.5" r="10" style="fill: inherit;"/></g><g id="__id181_sfkswyw0nw"><circle cx="257.33" cy="255.5" r="10" style="fill: inherit;"/></g><g id="__id182_sfkswyw0nw"><circle cx="307.33" cy="255.5" r="10" style="fill: inherit;"/></g><g id="__id183_sfkswyw0nw"><circle cx="204.67" cy="306.5" r="10" style="fill: inherit;"/></g><g id="__id184_sfkswyw0nw"><circle cx="253.34" cy="307" r="10" style="fill: inherit;"/></g></g></g></svg>